<svg width="256" height="314" viewBox="0 0 256 314" fill="none" xmlns="http://www.w3.org/2000/svg">
<circle cx="60.5" cy="6.5" r="6.5" fill="#669DF0"/>
<circle cx="35.5" cy="115.5" r="4.5" fill="#2676EE"/>
<circle cx="212.5" cy="87.5" r="8.5" fill="#2676EE"/>
<line x1="106" y1="61" x2="106" y2="73" stroke="black" stroke-width="2" stroke-linecap="round"/>
<line x1="106" y1="85" x2="106" y2="97" stroke="black" stroke-width="2" stroke-linecap="round"/>
<line x1="124" y1="79" x2="112" y2="79" stroke="black" stroke-width="2" stroke-linecap="round"/>
<line x1="100" y1="79" x2="88" y2="79" stroke="black" stroke-width="2" stroke-linecap="round"/>
<line x1="158" y1="1" x2="158" y2="13" stroke="black" stroke-width="2" stroke-linecap="round"/>
<line x1="158" y1="25" x2="158" y2="37" stroke="black" stroke-width="2" stroke-linecap="round"/>
<line x1="176" y1="19" x2="164" y2="19" stroke="black" stroke-width="2" stroke-linecap="round"/>
<line x1="152" y1="19" x2="140" y2="19" stroke="black" stroke-width="2" stroke-linecap="round"/>
<ellipse cx="133" cy="289.5" rx="99" ry="24.5" fill="#F4D4ED"/>
<g clip-path="url(#clip0_1_993)">
<path d="M199.236 207.471L64.3519 223.191C63.9229 223.24 63.4918 223.116 63.1532 222.847C62.8147 222.578 62.5965 222.186 62.5466 221.756L53.5594 144.981C53.5344 144.769 53.5514 144.554 53.6095 144.348C53.6676 144.142 53.7656 143.95 53.898 143.782C54.0304 143.614 54.1945 143.475 54.3809 143.37C54.5674 143.266 54.7726 143.2 54.9847 143.176L57.5404 142.877C57.8644 142.84 58.1698 142.706 58.4165 142.493C58.6631 142.279 58.8396 141.996 58.9228 141.68L60.6718 135.152C60.7234 134.948 60.8161 134.757 60.9442 134.59C61.5599 133.832 62.4471 133.345 63.4168 133.232L97.4187 129.273C98.1809 129.182 98.9528 129.328 99.6297 129.692C99.8127 129.798 99.9725 129.94 100.1 130.109L104.944 136.549C105.114 136.777 105.342 136.957 105.603 137.069C105.864 137.181 106.151 137.222 106.433 137.188L189.873 127.471C190.301 127.421 190.732 127.543 191.072 127.81C191.411 128.078 191.63 128.47 191.682 128.899L200.667 205.669C200.715 206.098 200.592 206.528 200.323 206.866C200.055 207.204 199.664 207.421 199.236 207.471Z" fill="black" stroke="black" stroke-miterlimit="10"/>
<path d="M200.521 206.74L71.8861 241.208C71.5126 241.308 71.1231 241.333 70.7397 241.283C70.3563 241.232 69.9865 241.106 69.6516 240.912C69.3166 240.718 69.023 240.46 68.7874 240.153C68.5519 239.845 68.379 239.495 68.2787 239.12L48.9545 167.001C48.752 166.246 48.8574 165.441 49.2476 164.763C49.6377 164.086 50.2806 163.592 51.0348 163.39L51.384 163.296C51.953 163.143 52.4631 162.822 52.8489 162.376C53.2347 161.93 53.4787 161.379 53.5495 160.792L54.1859 155.334C54.2522 154.706 54.5235 154.118 54.9576 153.66C55.4272 153.181 56.0161 152.835 56.6637 152.66L89.7268 143.8C90.1711 143.681 90.6334 143.644 91.0912 143.69C91.7307 143.769 92.3252 144.061 92.778 144.521L97.6823 149.364C98.048 149.726 98.5019 149.985 98.9987 150.117C99.4955 150.249 100.018 150.249 100.514 150.116L179.665 128.907C180.42 128.705 181.223 128.811 181.9 129.203C182.576 129.594 183.07 130.239 183.273 130.995L202.601 203.129C202.701 203.503 202.727 203.893 202.677 204.277C202.627 204.661 202.501 205.032 202.308 205.367C202.115 205.702 201.858 205.996 201.551 206.232C201.244 206.468 200.894 206.64 200.521 206.74Z" fill="#EE26C2"/>
<mask id="mask0_1_993" style="mask-type:luminance" maskUnits="userSpaceOnUse" x="48" y="128" width="155" height="114">
<path d="M200.521 206.74L71.8861 241.208C71.5126 241.308 71.1231 241.333 70.7397 241.283C70.3563 241.232 69.9865 241.106 69.6516 240.912C69.3166 240.718 69.023 240.46 68.7874 240.153C68.5519 239.845 68.379 239.495 68.2787 239.12L48.9545 167.001C48.752 166.246 48.8574 165.441 49.2476 164.763C49.6377 164.086 50.2806 163.592 51.0348 163.39L51.384 163.296C51.953 163.143 52.4631 162.822 52.8489 162.376C53.2347 161.93 53.4787 161.379 53.5495 160.792L54.1859 155.334C54.2522 154.706 54.5235 154.118 54.9576 153.66C55.4272 153.181 56.0161 152.835 56.6637 152.66L89.7268 143.8C90.1711 143.681 90.6334 143.644 91.0912 143.69C91.7307 143.769 92.3252 144.061 92.778 144.521L97.6823 149.364C98.048 149.726 98.5019 149.985 98.9987 150.117C99.4955 150.249 100.018 150.249 100.514 150.116L179.665 128.907C180.42 128.705 181.223 128.811 181.9 129.203C182.576 129.594 183.07 130.239 183.273 130.995L202.601 203.129C202.701 203.503 202.727 203.893 202.677 204.277C202.627 204.661 202.501 205.032 202.308 205.367C202.115 205.702 201.858 205.996 201.551 206.232C201.244 206.468 200.894 206.64 200.521 206.74Z" fill="white"/>
</mask>
<g mask="url(#mask0_1_993)">
<path opacity="0.1" d="M200.521 206.74L71.8861 241.208C71.5126 241.308 71.1231 241.333 70.7397 241.283C70.3563 241.232 69.9865 241.106 69.6516 240.912C69.3166 240.718 69.023 240.46 68.7874 240.153C68.5519 239.845 68.379 239.495 68.2787 239.12L48.9545 167.001C48.752 166.246 48.8574 165.441 49.2476 164.763C49.6377 164.086 50.2806 163.592 51.0348 163.39L51.384 163.296C51.953 163.143 52.4631 162.822 52.8489 162.376C53.2347 161.93 53.4787 161.379 53.5495 160.792L54.1859 155.334C54.2522 154.706 54.5235 154.118 54.9576 153.66C55.4272 153.181 56.0161 152.835 56.6637 152.66L89.7268 143.8C90.1711 143.681 90.6334 143.644 91.0912 143.69C91.7307 143.769 92.3252 144.061 92.778 144.521L97.6823 149.364C98.048 149.726 98.5019 149.985 98.9987 150.117C99.4955 150.249 100.018 150.249 100.514 150.116L179.665 128.907C180.42 128.705 181.223 128.811 181.9 129.203C182.576 129.594 183.07 130.239 183.273 130.995L202.601 203.129C202.701 203.503 202.727 203.893 202.677 204.277C202.627 204.661 202.501 205.032 202.308 205.367C202.115 205.702 201.858 205.996 201.551 206.232C201.244 206.468 200.894 206.64 200.521 206.74Z" fill="black"/>
</g>
<path d="M200.521 206.74L71.8861 241.208C71.5126 241.308 71.1231 241.333 70.7397 241.283C70.3563 241.232 69.9865 241.106 69.6516 240.912C69.3166 240.718 69.023 240.46 68.7874 240.153C68.5519 239.845 68.379 239.495 68.2787 239.12L48.9545 167.001C48.752 166.246 48.8574 165.441 49.2476 164.763C49.6377 164.086 50.2806 163.592 51.0348 163.39L51.384 163.296C51.953 163.143 52.4631 162.822 52.8489 162.376C53.2347 161.93 53.4787 161.379 53.5495 160.792L54.1859 155.334C54.2522 154.706 54.5235 154.118 54.9576 153.66C55.4272 153.181 56.0161 152.835 56.6637 152.66L89.7268 143.8C90.1711 143.681 90.6334 143.644 91.0912 143.69C91.7307 143.769 92.3252 144.061 92.778 144.521L97.6823 149.364C98.048 149.726 98.5019 149.985 98.9987 150.117C99.4955 150.249 100.018 150.249 100.514 150.116L179.665 128.907C180.42 128.705 181.223 128.811 181.9 129.203C182.576 129.594 183.07 130.239 183.273 130.995L202.601 203.129C202.701 203.503 202.727 203.893 202.677 204.277C202.627 204.661 202.501 205.032 202.308 205.367C202.115 205.702 201.858 205.996 201.551 206.232C201.244 206.468 200.894 206.64 200.521 206.74Z" stroke="black" stroke-miterlimit="10"/>
<path d="M84.4729 154.169L63.8881 159.685C63.397 159.817 62.8735 159.747 62.4329 159.492C61.9924 159.237 61.6708 158.818 61.5389 158.326C61.4728 158.082 61.4554 157.827 61.4877 157.576C61.52 157.326 61.6013 157.084 61.7271 156.865C61.8528 156.646 62.0204 156.454 62.2204 156.3C62.4203 156.147 62.6487 156.034 62.8923 155.969L83.4771 150.453C83.9696 150.321 84.4945 150.39 84.9363 150.646C85.3781 150.902 85.7005 151.323 85.8328 151.816C85.8982 152.06 85.9149 152.315 85.8819 152.565C85.8489 152.816 85.767 153.057 85.6406 153.276C85.5143 153.494 85.3461 153.686 85.1458 153.839C84.9454 153.993 84.7167 154.105 84.4729 154.169Z" fill="black"/>
<path d="M203.893 219.325L75.258 253.792C74.5038 253.994 73.7 253.888 73.0235 253.496C72.347 253.105 71.8532 252.461 71.6507 251.705L52.3264 179.586C52.1239 178.83 52.2294 178.025 52.6195 177.348C53.0096 176.67 53.6525 176.176 54.4067 175.974L54.7559 175.881C55.3253 175.728 55.8358 175.407 56.2217 174.961C56.6076 174.515 56.8513 173.963 56.9214 173.377L57.5592 167.924C57.624 167.295 57.8954 166.706 58.3309 166.25C58.7991 165.768 59.3885 165.422 60.037 165.249L93.1001 156.39C93.5444 156.27 94.0067 156.233 94.4645 156.28C95.1055 156.358 95.7009 156.653 96.1527 157.115L101.058 161.963C101.424 162.325 101.878 162.585 102.375 162.717C102.871 162.849 103.394 162.848 103.89 162.715L183.041 141.507C183.796 141.305 184.599 141.411 185.276 141.802C185.952 142.194 186.446 142.838 186.649 143.594L205.973 215.713C206.176 216.469 206.07 217.274 205.68 217.951C205.29 218.629 204.647 219.123 203.893 219.325Z" fill="black" stroke="black" stroke-miterlimit="10"/>
<path d="M90.3507 136.656L69.2485 139.593C68.7441 139.662 68.2328 139.527 67.8263 139.22C67.4198 138.913 67.151 138.457 67.0787 137.952C67.0094 137.446 67.1435 136.933 67.4515 136.526C67.7596 136.12 68.2163 135.853 68.7213 135.783L89.8184 132.848C90.3231 132.778 90.835 132.911 91.2419 133.219C91.6487 133.527 91.9172 133.983 91.9882 134.489C92.0231 134.739 92.0084 134.994 91.9449 135.238C91.8814 135.482 91.7705 135.712 91.6184 135.913C91.4663 136.114 91.276 136.283 91.0585 136.411C90.8409 136.538 90.6004 136.622 90.3507 136.656Z" fill="#EE26C2"/>
<path opacity="0.5" d="M90.3507 136.656L69.2485 139.593C68.7441 139.662 68.2328 139.527 67.8263 139.22C67.4198 138.913 67.151 138.457 67.0787 137.952C67.0094 137.446 67.1435 136.933 67.4515 136.526C67.7596 136.12 68.2163 135.853 68.7213 135.783L89.8184 132.848C90.3231 132.778 90.835 132.911 91.2419 133.219C91.6487 133.527 91.9172 133.983 91.9882 134.489C92.0231 134.739 92.0084 134.994 91.9449 135.238C91.8814 135.482 91.7705 135.712 91.6184 135.913C91.4663 136.114 91.276 136.283 91.0585 136.411C90.8409 136.538 90.6004 136.622 90.3507 136.656Z" fill="white"/>
<path d="M87.8464 166.759L67.2616 172.274C67.0179 172.34 66.7638 172.356 66.5137 172.323C66.2636 172.29 66.0224 172.207 65.8041 172.08C65.5857 171.954 65.3944 171.785 65.2412 171.584C65.0879 171.383 64.9757 171.154 64.911 170.91C64.779 170.417 64.8473 169.892 65.101 169.451C65.3547 169.009 65.7731 168.686 66.2644 168.553L86.8492 163.037C87.3417 162.905 87.8666 162.975 88.3084 163.23C88.7501 163.486 89.0726 163.907 89.2049 164.4C89.3371 164.894 89.2682 165.42 89.0135 165.862C88.7587 166.304 88.3389 166.627 87.8464 166.759Z" fill="#EE26C2"/>
<path opacity="0.5" d="M87.8464 166.759L67.2616 172.274C67.0179 172.34 66.7638 172.356 66.5137 172.323C66.2636 172.29 66.0224 172.207 65.8041 172.08C65.5857 171.954 65.3944 171.785 65.2412 171.584C65.0879 171.383 64.9757 171.154 64.911 170.91C64.779 170.417 64.8473 169.892 65.101 169.451C65.3547 169.009 65.7731 168.686 66.2644 168.553L86.8492 163.037C87.3417 162.905 87.8666 162.975 88.3084 163.23C88.7501 163.486 89.0726 163.907 89.2049 164.4C89.3371 164.894 89.2682 165.42 89.0135 165.862C88.7587 166.304 88.3389 166.627 87.8464 166.759Z" fill="white"/>
<path d="M193.059 162.07L56.0088 198.793C54.536 199.187 53.6626 200.704 54.058 202.179L76.3235 285.276C76.719 286.751 78.2334 287.628 79.7062 287.233L216.756 250.511C218.229 250.116 219.102 248.6 218.707 247.124L196.441 164.028C196.046 162.552 194.531 161.676 193.059 162.07Z" fill="#2676EE"/>
<path d="M193.059 162.07L56.0088 198.793C54.536 199.187 53.6626 200.704 54.058 202.179L76.3235 285.276C76.719 286.751 78.2334 287.628 79.7062 287.233L216.756 250.511C218.229 250.116 219.102 248.6 218.707 247.124L196.441 164.028C196.046 162.552 194.531 161.676 193.059 162.07Z" stroke="black" stroke-miterlimit="10"/>
<path d="M154.37 207.097L112.032 218.441C111.269 218.646 110.816 219.431 111.021 220.196L116.821 241.84C117.026 242.605 117.81 243.059 118.573 242.854L160.912 231.51C161.675 231.305 162.127 230.52 161.922 229.756L156.123 208.111C155.918 207.346 155.133 206.892 154.37 207.097Z" fill="black" stroke="black" stroke-miterlimit="10"/>
<path d="M154.37 207.097L112.032 218.441C111.269 218.646 110.816 219.431 111.021 220.196L112.268 224.85C112.473 225.614 113.258 226.068 114.021 225.864L156.359 214.519C157.122 214.315 157.575 213.53 157.37 212.765L156.123 208.111C155.918 207.346 155.133 206.892 154.37 207.097Z" fill="white" stroke="black" stroke-miterlimit="10"/>
<path d="M77.2383 132.148L80.4782 132.682C80.4782 132.682 80.7685 131.903 80.041 131.799L78.9144 131.4" fill="white"/>
<path d="M77.2383 132.148L80.4782 132.682C80.4782 132.682 80.7685 131.903 80.041 131.799L78.9144 131.4" stroke="black" stroke-linejoin="round"/>
</g>
<defs>
<clipPath id="clip0_1_993">
<rect width="222.618" height="157.651" fill="white" transform="translate(0 149.91) rotate(-15)"/>
</clipPath>
</defs>
</svg>
