<svg width="16" height="16" viewBox="0 0 16 16" fill="none" xmlns="http://www.w3.org/2000/svg">
<path fill-rule="evenodd" clip-rule="evenodd" d="M8 16C12.4183 16 16 12.4183 16 8C16 3.58172 12.4183 0 8 0C3.58172 0 0 3.58172 0 8C0 12.4183 3.58172 16 8 16ZM8.26136 10.2727L8.34659 4H7.1875L7.27273 10.2727H8.26136ZM7.22585 12.5696C7.37642 12.7202 7.55682 12.7955 7.76705 12.7955C7.90909 12.7955 8.03693 12.7614 8.15057 12.6932C8.26705 12.6222 8.35938 12.5284 8.42756 12.4119C8.49858 12.2955 8.53409 12.1676 8.53409 12.0284C8.53409 11.8182 8.45881 11.6378 8.30824 11.4872C8.15767 11.3366 7.97727 11.2614 7.76705 11.2614C7.55682 11.2614 7.37642 11.3366 7.22585 11.4872C7.07528 11.6378 7 11.8182 7 12.0284C7 12.2386 7.07528 12.419 7.22585 12.5696Z" fill="#949494"/>
</svg>
