<svg width="40" height="40" viewBox="0 0 40 40" fill="none" xmlns="http://www.w3.org/2000/svg">
<path fill-rule="evenodd" clip-rule="evenodd" d="M40 20C40 31.0457 31.0457 40 20 40C8.95431 40 0 31.0457 0 20C0 8.95431 8.95431 0 20 0C31.0457 0 40 8.95431 40 20ZM20.7167 14.7649C18.7714 15.574 14.8835 17.2487 9.05313 19.7889C8.10637 20.1654 7.61041 20.5337 7.56526 20.8939C7.48896 21.5025 8.25117 21.7422 9.2891 22.0686C9.43028 22.1129 9.57657 22.1589 9.72654 22.2077C10.7477 22.5396 12.1214 22.928 12.8355 22.9434C13.4832 22.9574 14.2062 22.6903 15.0044 22.1422C20.4519 18.465 23.264 16.6064 23.4405 16.5663C23.565 16.538 23.7376 16.5025 23.8546 16.6064C23.9715 16.7104 23.96 16.9072 23.9476 16.96C23.8721 17.2819 20.8802 20.0635 19.3319 21.5029C18.8492 21.9517 18.5068 22.27 18.4368 22.3427C18.28 22.5056 18.1202 22.6596 17.9666 22.8077C17.0179 23.7222 16.3065 24.4081 18.006 25.528C18.8227 26.0662 19.4762 26.5112 20.1282 26.9552C20.8402 27.4401 21.5504 27.9238 22.4693 28.5261C22.7034 28.6796 22.927 28.839 23.1448 28.9942C23.9734 29.585 24.7179 30.1157 25.6376 30.0311C26.1721 29.9819 26.7241 29.4794 27.0044 27.9806C27.667 24.4386 28.9694 16.7641 29.2703 13.6016C29.2967 13.3246 29.2635 12.97 29.2369 12.8143C29.2103 12.6586 29.1546 12.4368 28.9523 12.2727C28.7126 12.0782 28.3427 12.0372 28.1773 12.0401C27.425 12.0534 26.2709 12.4547 20.7167 14.7649Z" fill="url(#paint0_linear_1_1056)"/>
<defs>
<linearGradient id="paint0_linear_1_1056" x1="20" y1="0" x2="20" y2="39.7033" gradientUnits="userSpaceOnUse">
<stop stop-color="#2AABEE"/>
<stop offset="1" stop-color="#229ED9"/>
</linearGradient>
</defs>
</svg>
