<svg width="40" height="40" viewBox="0 0 40 40" fill="none" xmlns="http://www.w3.org/2000/svg">
<circle cx="20" cy="20" r="20" fill="#20B038"/>
<path d="M16.0916 13.9299C16.322 13.9393 16.5769 13.9501 16.8191 14.4885C16.9847 14.8566 17.2632 15.5427 17.4851 16.0896C17.6487 16.4925 17.7815 16.8198 17.8158 16.8884C17.8967 17.0501 17.9505 17.2388 17.8428 17.4547C17.8266 17.487 17.8117 17.5175 17.7974 17.5466C17.7164 17.7119 17.6569 17.8333 17.5198 17.9939C17.466 18.0566 17.4104 18.1243 17.3549 18.1919C17.2433 18.3276 17.1316 18.4634 17.0347 18.5601C16.8726 18.7213 16.7041 18.8964 16.8927 19.2198C17.0814 19.5434 17.7303 20.6017 18.6914 21.4586C19.7239 22.3792 20.6209 22.7686 21.0764 22.9664C21.1659 23.0052 21.2383 23.0366 21.2914 23.0633C21.6147 23.2249 21.8033 23.198 21.9919 22.9819C22.1806 22.7663 22.7998 22.0383 23.0154 21.7149C23.231 21.3913 23.4466 21.4452 23.7429 21.5529C24.0394 21.6607 25.6289 22.443 25.9522 22.6047C26.0152 22.6362 26.0742 22.6646 26.1288 22.691C26.3545 22.7999 26.5069 22.8734 26.5719 22.9819C26.6528 23.1172 26.6528 23.7642 26.3833 24.5191C26.1139 25.274 24.7938 26.0021 24.201 26.056C24.144 26.0612 24.0873 26.0679 24.0289 26.0747C23.4811 26.1391 22.7896 26.2204 20.3213 25.2471C17.2841 24.0494 15.2815 21.0812 14.8678 20.468C14.8338 20.4177 14.8106 20.3833 14.7983 20.367L14.7947 20.3621C14.6204 20.1292 13.4782 18.6027 13.4782 17.0231C13.4782 15.5342 14.21 14.7537 14.5468 14.3946C14.5698 14.3701 14.591 14.3475 14.6099 14.3268C14.9061 14.0033 15.2564 13.9223 15.472 13.9223C15.4838 13.9223 15.4956 13.9223 15.5074 13.9223C15.711 13.9223 15.9135 13.9223 16.0916 13.9299Z" fill="white"/>
<path fill-rule="evenodd" clip-rule="evenodd" d="M8.85341 26.3448C7.70482 24.387 7.10442 22.1681 7.10442 19.8709C7.10442 12.7444 12.9257 6.94922 20.0522 6.94922C23.5241 6.94922 26.761 8.30665 29.2149 10.7344C31.6426 13.1882 33 16.4251 33 19.897C33 27.0235 27.1787 32.8187 20.0522 32.8187C17.8855 32.8187 15.745 32.2966 13.8655 31.2524L7 33.0536L8.85341 26.3448ZM10.9418 25.6139L11.2028 26.0054L10.1064 29.9733L14.1787 28.903L14.5703 29.138C16.2149 30.1299 18.1205 30.652 20.0522 30.652C25.9779 30.652 30.8072 25.8227 30.8072 19.897C30.8072 17.0255 29.6847 14.3107 27.6486 12.2745C25.6386 10.2645 22.9237 9.14199 20.0522 9.14199C14.1265 9.14199 9.29719 13.9452 9.29719 19.897C9.29719 21.9071 9.87149 23.891 10.9418 25.6139Z" fill="white"/>
</svg>
