<svg xmlns="http://www.w3.org/2000/svg">
  <!-- header -->
  <!-- main-link -->
  <symbol id="main-pink" viewBox="0 0 74 30" fill="none" xmlns="http://www.w3.org/2000/svg">
    <path d="M5.34707 7.79393V18.4881H10.6941C11.427 18.4881 12.1163 18.3514 12.7622 18.0782C13.408 17.7925 13.9732 17.4075 14.4576 16.9231C14.942 16.4387 15.3208 15.8735 15.5941 15.2277C15.8797 14.5694 16.0226 13.8738 16.0226 13.141C16.0226 12.4082 15.8797 11.7188 15.5941 11.073C15.3208 10.4147 14.942 9.84333 14.4576 9.35892C13.9732 8.87452 13.408 8.49569 12.7622 8.22244C12.1163 7.93676 11.427 7.79393 10.6941 7.79393H5.34707ZM5.34707 29.1636H0V2.44686H10.6941C11.6754 2.44686 12.6193 2.57728 13.526 2.83811C14.4327 3.08652 15.2773 3.44672 16.0598 3.9187C16.8548 4.37826 17.5751 4.93719 18.221 5.59548C18.8793 6.24135 19.4382 6.96175 19.8978 7.75667C20.3698 8.55158 20.73 9.4024 20.9784 10.3091C21.2392 11.2158 21.3696 12.1598 21.3696 13.141C21.3696 14.6066 21.0902 15.9915 20.5312 17.2957C19.9723 18.5874 19.2085 19.7177 18.2396 20.6865C17.2708 21.6553 16.1344 22.4192 14.8302 22.9781C13.5385 23.537 12.1598 23.8165 10.6941 23.8165H5.34707V29.1636Z" fill="currentColor"/>
    <path d="M29.9771 3.78828C29.9771 4.26027 29.884 4.7012 29.6977 5.11108C29.5238 5.52096 29.2816 5.88116 28.971 6.19167C28.6605 6.48976 28.2941 6.73197 27.8718 6.91828C27.4619 7.09216 27.021 7.17911 26.549 7.17911C26.077 7.17911 25.6299 7.09216 25.2076 6.91828C24.7977 6.73197 24.4375 6.48976 24.127 6.19167C23.8289 5.88116 23.5867 5.52096 23.4004 5.11108C23.2265 4.7012 23.1396 4.26027 23.1396 3.78828C23.1396 3.32872 23.2265 2.894 23.4004 2.48412C23.5867 2.06182 23.8289 1.70162 24.127 1.40353C24.4375 1.09301 24.7977 0.850813 25.2076 0.676924C25.6299 0.490615 26.077 0.397461 26.549 0.397461C27.021 0.397461 27.4619 0.490615 27.8718 0.676924C28.2941 0.850813 28.6605 1.09301 28.971 1.40353C29.2816 1.70162 29.5238 2.06182 29.6977 2.48412C29.884 2.894 29.9771 3.32872 29.9771 3.78828ZM29.1015 29.1636H23.978V9.20988H29.1015V29.1636Z" fill="currentColor"/>
    <path d="M38.0816 29.1636H32.9953V9.20988H34.225L35.9017 11.1475C36.7215 10.4023 37.6468 9.83091 38.6777 9.43345C39.7211 9.02357 40.8079 8.81863 41.9382 8.81863C43.1554 8.81863 44.3043 9.05462 45.3849 9.5266C46.4655 9.98616 47.4094 10.6258 48.2168 11.4456C49.0241 12.2529 49.6576 13.2031 50.1171 14.2961C50.5891 15.3767 50.8251 16.5318 50.8251 17.7615V29.1636H45.7389V17.7615C45.7389 17.2398 45.6395 16.7492 45.4408 16.2896C45.242 15.8176 44.9688 15.4078 44.621 15.06C44.2732 14.7122 43.8696 14.4389 43.41 14.2402C42.9504 14.0415 42.4598 13.9421 41.9382 13.9421C41.4041 13.9421 40.901 14.0415 40.429 14.2402C39.9571 14.4389 39.5472 14.7122 39.1994 15.06C38.8516 15.4078 38.5784 15.8176 38.3797 16.2896C38.1809 16.7492 38.0816 17.2398 38.0816 17.7615V29.1636Z" fill="currentColor"/>
    <path d="M59.5816 29.1636H54.4581V1.27311H59.5816V18.8607L67.1644 9.24714H73.0145L66.4005 17.5565L73.0145 29.1636H67.1644L63.1215 21.9161L59.5816 26.6111V29.1636Z" fill="currentColor"/>
  </symbol>

  <symbol id="main-c" viewBox="0 0 32 30" fill="none" xmlns="http://www.w3.org/2000/svg">
    <path fill-rule="evenodd" clip-rule="evenodd" d="M23.4197 3.17544C22.9006 2.79762 22.3547 2.45298 21.7847 2.14465C18.9385 0.605109 15.6626 0.062922 12.4783 0.598077C12.4266 0.606524 12.375 0.615261 12.3233 0.624288C11.11 0.831736 9.93583 1.19239 8.80088 1.70624C7.66593 2.2201 6.61191 2.86827 5.63881 3.65074C4.68239 4.42567 3.8236 5.32734 3.06241 6.35577C2.31335 7.38877 1.7059 8.52357 1.24009 9.76017C0.774267 10.9968 0.482038 12.2503 0.3634 13.5208C0.261451 14.7837 0.311918 16.0279 0.514799 17.2534C0.734371 18.4713 1.10108 19.6477 1.61494 20.7826C1.69335 20.9558 1.77474 21.1271 1.85912 21.2964C2.33803 22.2722 2.92815 23.1973 3.62258 24.0521C5.73888 26.6572 8.69297 28.4478 11.9815 29.119C15.27 29.7901 18.6896 29.3002 21.6574 27.7328C24.6253 26.1654 26.9578 23.6174 28.2576 20.523L23.0572 18.3386C22.2085 20.3537 20.6287 22.0221 18.5941 22.9584L18.5761 22.8632C17.8332 23.2186 17.0281 23.4762 16.1745 23.6169C15.0708 23.7988 13.981 23.7695 12.9464 23.5587C9.52336 22.7917 6.74041 20.0201 6.13493 16.3464C5.33869 11.5153 8.60962 6.95343 13.4407 6.15719C16.2422 5.69547 18.9531 6.60137 20.8918 8.38605C21.8184 9.27254 22.5599 10.3634 23.0384 11.6029L28.9598 9.39167L28.9877 9.46655C29.8276 8.53607 30.7225 7.45571 31.6418 6.31606C29.8198 6.21157 28.0915 6.14082 26.6267 6.1777C27.027 4.66425 27.3631 2.77951 27.6836 0.772933C26.1148 1.59986 24.6377 2.40823 23.4197 3.17544Z" fill="currentColor"/>
  </symbol>

  <svg id="main-hicken" viewBox="0 0 110 30" fill="none" xmlns="http://www.w3.org/2000/svg">
    <path d="M5.83546 29.0359H0.69873V0.883864H5.83546V9.77892C6.45011 9.31505 7.08358 8.98908 7.73586 8.80103C8.38814 8.60043 9.05297 8.50014 9.73034 8.50014C10.9722 8.50014 12.1388 8.73834 13.2301 9.21475C14.3214 9.67862 15.2685 10.3243 16.0713 11.1517C16.8866 11.9666 17.5264 12.9257 17.9905 14.029C18.4672 15.1197 18.7055 16.2857 18.7055 17.5268V29.0359H13.5311V17.5268H13.5688C13.5688 17.0003 13.4684 16.5051 13.2677 16.0412C13.067 15.5648 12.791 15.1511 12.4398 14.8C12.0886 14.449 11.6809 14.1732 11.2168 13.9726C10.7527 13.772 10.2572 13.6717 9.73034 13.6717C9.19095 13.6717 8.68292 13.772 8.20625 13.9726C7.72959 14.1732 7.31564 14.449 6.96441 14.8C6.61318 15.1511 6.33721 15.5648 6.13651 16.0412C5.93581 16.5051 5.83546 17.0003 5.83546 17.5268V29.0359Z" fill="currentColor"/>
    <path d="M28.4333 3.42262C28.4333 3.89903 28.3392 4.3441 28.1511 4.75782C27.9754 5.17154 27.7308 5.53512 27.4172 5.84855C27.1036 6.14944 26.7336 6.39391 26.3071 6.58196C25.8932 6.75748 25.4478 6.84524 24.9712 6.84524C24.4945 6.84524 24.0429 6.75748 23.6164 6.58196C23.2025 6.39391 22.8387 6.14944 22.5251 5.84855C22.2241 5.53512 21.9795 5.17154 21.7913 4.75782C21.6157 4.3441 21.5279 3.89903 21.5279 3.42262C21.5279 2.95875 21.6157 2.51995 21.7913 2.10623C21.9795 1.67997 22.2241 1.31639 22.5251 1.0155C22.8387 0.702076 23.2025 0.457603 23.6164 0.282084C24.0429 0.0940281 24.4945 0 24.9712 0C25.4478 0 25.8932 0.0940281 26.3071 0.282084C26.7336 0.457603 27.1036 0.702076 27.4172 1.0155C27.7308 1.31639 27.9754 1.67997 28.1511 2.10623C28.3392 2.51995 28.4333 2.95875 28.4333 3.42262ZM27.5489 29.0359H22.3746V8.89505H27.5489V29.0359Z" fill="currentColor"/>
    <path d="M49.0931 12.9007L45.3299 16.6806C45.1418 16.154 44.8846 15.6839 44.5585 15.2702C44.2323 14.8439 43.8623 14.4866 43.4483 14.1982C43.0469 13.9099 42.6079 13.6905 42.1312 13.54C41.6546 13.3896 41.1654 13.3144 40.6636 13.3144C39.9611 13.3144 39.2963 13.4586 38.6691 13.7469C38.0545 14.0353 37.5151 14.4427 37.051 14.9693C36.5994 15.4833 36.2419 16.0976 35.9784 16.8122C35.715 17.5268 35.5833 18.3167 35.5833 19.1817C35.5833 19.8838 35.715 20.542 35.9784 21.1563C36.2419 21.7706 36.5994 22.3097 37.051 22.7736C37.5151 23.2375 38.0545 23.601 38.6691 23.8643C39.2963 24.1276 39.9611 24.2592 40.6636 24.2592C41.1654 24.2592 41.6483 24.1903 42.1124 24.0524C42.5765 23.9145 43.0093 23.7201 43.4107 23.4694C43.8247 23.2061 44.1884 22.8927 44.502 22.5291C44.8282 22.153 45.0916 21.7393 45.2923 21.288L49.0555 25.0679C48.5788 25.7449 48.0269 26.3529 47.3997 26.892C46.785 27.4311 46.1139 27.8887 45.3864 28.2648C44.6714 28.6409 43.9125 28.923 43.1097 29.1111C42.3194 29.3117 41.504 29.412 40.6636 29.412C39.2461 29.412 37.9102 29.1487 36.6558 28.6221C35.414 28.083 34.3227 27.3496 33.3819 26.4219C32.4536 25.4941 31.7198 24.4097 31.1804 23.1685C30.641 21.9273 30.3713 20.5984 30.3713 19.1817C30.3713 17.6397 30.641 16.1979 31.1804 14.8564C31.7198 13.515 32.4536 12.349 33.3819 11.3586C34.3227 10.3556 35.414 9.56579 36.6558 8.98908C37.9102 8.41238 39.2461 8.12402 40.6636 8.12402C41.504 8.12402 42.3257 8.23059 43.1285 8.44372C43.9438 8.65685 44.7153 8.97028 45.4428 9.384C46.1829 9.78519 46.8603 10.2804 47.4749 10.8696C48.1021 11.4589 48.6415 12.1359 49.0931 12.9007Z" fill="currentColor"/>
    <path d="M56.7888 29.0359H51.6144V0.883864H56.7888V18.6364L64.4468 8.93267H70.355L63.6754 17.32L70.355 29.0359H64.4468L60.3638 21.7205L56.7888 26.4595V29.0359Z" fill="currentColor"/>
    <path d="M79.7629 24.1088C79.9636 24.1715 80.1643 24.2154 80.365 24.2404C80.5657 24.253 80.7664 24.2592 80.9671 24.2592C81.4689 24.2592 81.9518 24.1903 82.416 24.0524C82.8801 23.9145 83.3129 23.7201 83.7143 23.4694C84.1282 23.2061 84.492 22.8927 84.8056 22.5291C85.1317 22.153 85.3951 21.7393 85.5958 21.288L89.359 25.0679C88.8823 25.7449 88.3304 26.3529 87.7032 26.892C87.0886 27.4311 86.4175 27.8887 85.6899 28.2648C84.9749 28.6409 84.216 28.923 83.4132 29.1111C82.6229 29.3117 81.8076 29.412 80.9671 29.412C79.5497 29.412 78.2138 29.1487 76.9594 28.6221C75.7175 28.0956 74.6262 27.3622 73.6854 26.4219C72.7572 25.4816 72.0233 24.3658 71.484 23.0745C70.9446 21.7706 70.6749 20.3414 70.6749 18.7868C70.6749 17.1946 70.9446 15.7403 71.484 14.4239C72.0233 13.1075 72.7572 11.9854 73.6854 11.0577C74.6262 10.13 75.7175 9.40907 76.9594 8.89505C78.2138 8.38103 79.5497 8.12402 80.9671 8.12402C81.8076 8.12402 82.6292 8.22432 83.432 8.42491C84.2348 8.62551 84.9937 8.91386 85.7087 9.28997C86.4363 9.66609 87.1137 10.13 87.7409 10.6816C88.368 11.2207 88.92 11.8287 89.3966 12.5057L79.7629 24.1088ZM82.3971 13.5212C82.1588 13.4335 81.9205 13.3771 81.6821 13.352C81.4564 13.3269 81.218 13.3144 80.9671 13.3144C80.2647 13.3144 79.5999 13.446 78.9727 13.7093C78.358 13.96 77.8186 14.3236 77.3545 14.8C76.9029 15.2764 76.5454 15.8531 76.282 16.5301C76.0186 17.1946 75.8869 17.9468 75.8869 18.7868C75.8869 18.9749 75.8931 19.188 75.9057 19.4262C75.9308 19.6644 75.9621 19.9089 75.9998 20.1596C76.0499 20.3978 76.1064 20.6298 76.1691 20.8554C76.2318 21.0811 76.3134 21.2817 76.4137 21.4572L82.3971 13.5212Z" fill="currentColor"/>
    <path d="M97.13 29.0359H91.9932V8.89505H93.2351L94.9285 10.8508C95.7564 10.0986 96.6909 9.52191 97.7321 9.12072C98.7858 8.707 99.8833 8.50014 101.025 8.50014C102.254 8.50014 103.414 8.73834 104.506 9.21475C105.597 9.67862 106.55 10.3243 107.366 11.1517C108.181 11.9666 108.821 12.9257 109.285 14.029C109.762 15.1197 110 16.2857 110 17.5268V29.0359H104.863V17.5268C104.863 17.0003 104.763 16.5051 104.562 16.0412C104.362 15.5648 104.086 15.1511 103.734 14.8C103.383 14.449 102.975 14.1732 102.511 13.9726C102.047 13.772 101.552 13.6717 101.025 13.6717C100.485 13.6717 99.9774 13.772 99.5008 13.9726C99.0241 14.1732 98.6101 14.449 98.2589 14.8C97.9077 15.1511 97.6317 15.5648 97.431 16.0412C97.2303 16.5051 97.13 17.0003 97.13 17.5268V29.0359Z" fill="currentColor"/>
  </svg>

  <symbol id="convert-card" viewBox="0 0 24 24" fill="none" xmlns="http://www.w3.org/2000/svg">
    <path d="M12 5.56H22" stroke="white" stroke-width="1.5" stroke-miterlimit="10" stroke-linecap="round" stroke-linejoin="round"/>
    <path d="M15.65 10.5H14.22C12.44 10.5 12 10.06 12 8.3V4.2C12 2.44 12.44 2 14.22 2H19.78C21.56 2 22 2.44 22 4.2V8.31C22 10.07 21.56 10.51 19.78 10.51" stroke="white" stroke-width="1.5" stroke-linecap="round" stroke-linejoin="round"/>
    <path d="M2 17.06H12" stroke="white" stroke-width="1.5" stroke-miterlimit="10" stroke-linecap="round" stroke-linejoin="round"/>
    <path d="M5.5 22H4.22C2.44 22 2 21.56 2 19.8V15.7C2 13.94 2.44 13.5 4.22 13.5H9.78C11.56 13.5 12 13.94 12 15.7V19.81C12 21.57 11.56 22.01 9.78 22.01" stroke="white" stroke-width="1.5" stroke-linecap="round" stroke-linejoin="round"/>
    <path d="M22 15C22 18.87 18.87 22 15 22L16.05 20.25" stroke="white" stroke-width="1.5" stroke-linecap="round" stroke-linejoin="round"/>
    <path d="M2 9C2 5.13 5.13 2 9 2L7.95001 3.75" stroke="white" stroke-width="1.5" stroke-linecap="round" stroke-linejoin="round"/>
  </symbol>

  <symbol id='settings' viewBox="0 0 24 24" fill="none" xmlns="http://www.w3.org/2000/svg">
    <path d="M15 12C15 10.34 13.66 9 12 9C10.34 9 9 10.34 9 12C9 13.66 10.34 15 12 15C12.41 15 12.81 14.92 13.17 14.76" stroke="currentColor" stroke-width="1.5" stroke-miterlimit="10" stroke-linecap="round" stroke-linejoin="round"/>
    <path d="M6.88 20.58L7.97 21.21C8.76 21.68 9.78 21.4 10.25 20.61L10.36 20.42C11.26 18.85 12.74 18.85 13.65 20.42L13.76 20.61C14.23 21.4 15.25 21.68 16.04 21.21L17.77 20.22C18.68 19.7 18.99 18.53 18.47 17.63C17.56 16.06 18.3 14.78 20.11 14.78C21.15 14.78 22.01 13.93 22.01 12.88V11.12C22.01 10.08 21.16 9.22001 20.11 9.22001C19.1 9.22001 18.42 8.82001 18.18 8.19001C17.99 7.70001 18.07 7.06001 18.47 6.37001C18.99 5.46001 18.68 4.30001 17.77 3.78001L16.96 3.32001" stroke="currentColor" stroke-width="1.5" stroke-miterlimit="10" stroke-linecap="round" stroke-linejoin="round"/>
    <path d="M13.64 3.58C12.74 5.15 11.26 5.15 10.35 3.58L10.24 3.39C9.78 2.6 8.76 2.32 7.97 2.79L6.24 3.78C5.33 4.3 5.02 5.47 5.54 6.38C6.45 7.94 5.71 9.22 3.9 9.22C2.86 9.22 2 10.07 2 11.12V12.88C2 13.92 2.85 14.78 3.9 14.78C5.71 14.78 6.45 16.06 5.54 17.63" stroke="currentColor" stroke-width="1.5" stroke-miterlimit="10" stroke-linecap="round" stroke-linejoin="round"/>
  </symbol>

  <symbol id='user' viewBox="0 0 24 24" fill="none" xmlns="http://www.w3.org/2000/svg">
    <path d="M15.02 3.01001C14.18 2.37001 13.14 2 12 2C9.24 2 7 4.24 7 7C7 9.76 9.24 12 12 12C14.76 12 17 9.76 17 7" stroke="currentColor" stroke-width="1.5" stroke-linecap="round" stroke-linejoin="round"/>
    <path d="M20.5899 22C20.5899 18.13 16.7399 15 11.9999 15C7.25991 15 3.40991 18.13 3.40991 22" stroke="currentColor" stroke-width="1.5" stroke-linecap="round" stroke-linejoin="round"/>
  </symbol>

  <symbol id='login' viewBox="0 0 24 24" fill="none" xmlns="http://www.w3.org/2000/svg">
    <path d="M2 12H14.88" stroke="#292D32" stroke-width="1.5" stroke-linecap="round" stroke-linejoin="round"/>
    <path d="M12.65 8.65002L16 12L12.65 15.35" stroke="#292D32" stroke-width="1.5" stroke-linecap="round" stroke-linejoin="round"/>
    <path d="M21.5 13V15.26C21.5 19.73 19.71 21.52 15.24 21.52H15.11C11.09 21.52 9.24003 20.07 8.91003 16.53" stroke="#292D32" stroke-width="1.5" stroke-linecap="round" stroke-linejoin="round"/>
    <path d="M8.90002 7.55999C9.21002 3.95999 11.06 2.48999 15.11 2.48999H15.24C19.71 2.48999 21.5 4.27999 21.5 8.74999" stroke="#292D32" stroke-width="1.5" stroke-linecap="round" stroke-linejoin="round"/>
  </symbol>

  <!-- files -->

  <symbol id="files-empty" viewBox="0 0 256 314" fill="none" xmlns="http://www.w3.org/2000/svg">
    <circle cx="60.5" cy="6.5" r="6.5" fill="#669DF0"/>
    <circle cx="35.5" cy="115.5" r="4.5" fill="#2676EE"/>
    <circle cx="212.5" cy="87.5" r="8.5" fill="#2676EE"/>
    <line x1="106" y1="61" x2="106" y2="73" stroke="black" stroke-width="2" stroke-linecap="round"/>
    <line x1="106" y1="85" x2="106" y2="97" stroke="black" stroke-width="2" stroke-linecap="round"/>
    <line x1="124" y1="79" x2="112" y2="79" stroke="black" stroke-width="2" stroke-linecap="round"/>
    <line x1="100" y1="79" x2="88" y2="79" stroke="black" stroke-width="2" stroke-linecap="round"/>
    <line x1="158" y1="1" x2="158" y2="13" stroke="black" stroke-width="2" stroke-linecap="round"/>
    <line x1="158" y1="25" x2="158" y2="37" stroke="black" stroke-width="2" stroke-linecap="round"/>
    <line x1="176" y1="19" x2="164" y2="19" stroke="black" stroke-width="2" stroke-linecap="round"/>
    <line x1="152" y1="19" x2="140" y2="19" stroke="black" stroke-width="2" stroke-linecap="round"/>
    <ellipse cx="133" cy="289.5" rx="99" ry="24.5" fill="#F4D4ED"/>
    <g clip-path="url(#clip0_1_993)">
    <path d="M199.236 207.471L64.3519 223.191C63.9229 223.24 63.4918 223.116 63.1532 222.847C62.8147 222.578 62.5965 222.186 62.5466 221.756L53.5594 144.981C53.5344 144.769 53.5514 144.554 53.6095 144.348C53.6676 144.142 53.7656 143.95 53.898 143.782C54.0304 143.614 54.1945 143.475 54.3809 143.37C54.5674 143.266 54.7726 143.2 54.9847 143.176L57.5404 142.877C57.8644 142.84 58.1698 142.706 58.4165 142.493C58.6631 142.279 58.8396 141.996 58.9228 141.68L60.6718 135.152C60.7234 134.948 60.8161 134.757 60.9442 134.59C61.5599 133.832 62.4471 133.345 63.4168 133.232L97.4187 129.273C98.1809 129.182 98.9528 129.328 99.6297 129.692C99.8127 129.798 99.9725 129.94 100.1 130.109L104.944 136.549C105.114 136.777 105.342 136.957 105.603 137.069C105.864 137.181 106.151 137.222 106.433 137.188L189.873 127.471C190.301 127.421 190.732 127.543 191.072 127.81C191.411 128.078 191.63 128.47 191.682 128.899L200.667 205.669C200.715 206.098 200.592 206.528 200.323 206.866C200.055 207.204 199.664 207.421 199.236 207.471Z" fill="black" stroke="black" stroke-miterlimit="10"/>
    <path d="M200.521 206.74L71.8861 241.208C71.5126 241.308 71.1231 241.333 70.7397 241.283C70.3563 241.232 69.9865 241.106 69.6516 240.912C69.3166 240.718 69.023 240.46 68.7874 240.153C68.5519 239.845 68.379 239.495 68.2787 239.12L48.9545 167.001C48.752 166.246 48.8574 165.441 49.2476 164.763C49.6377 164.086 50.2806 163.592 51.0348 163.39L51.384 163.296C51.953 163.143 52.4631 162.822 52.8489 162.376C53.2347 161.93 53.4787 161.379 53.5495 160.792L54.1859 155.334C54.2522 154.706 54.5235 154.118 54.9576 153.66C55.4272 153.181 56.0161 152.835 56.6637 152.66L89.7268 143.8C90.1711 143.681 90.6334 143.644 91.0912 143.69C91.7307 143.769 92.3252 144.061 92.778 144.521L97.6823 149.364C98.048 149.726 98.5019 149.985 98.9987 150.117C99.4955 150.249 100.018 150.249 100.514 150.116L179.665 128.907C180.42 128.705 181.223 128.811 181.9 129.203C182.576 129.594 183.07 130.239 183.273 130.995L202.601 203.129C202.701 203.503 202.727 203.893 202.677 204.277C202.627 204.661 202.501 205.032 202.308 205.367C202.115 205.702 201.858 205.996 201.551 206.232C201.244 206.468 200.894 206.64 200.521 206.74Z" fill="#EE26C2"/>
    <mask id="mask0_1_993" style="mask-type:luminance" maskUnits="userSpaceOnUse" x="48" y="128" width="155" height="114">
    <path d="M200.521 206.74L71.8861 241.208C71.5126 241.308 71.1231 241.333 70.7397 241.283C70.3563 241.232 69.9865 241.106 69.6516 240.912C69.3166 240.718 69.023 240.46 68.7874 240.153C68.5519 239.845 68.379 239.495 68.2787 239.12L48.9545 167.001C48.752 166.246 48.8574 165.441 49.2476 164.763C49.6377 164.086 50.2806 163.592 51.0348 163.39L51.384 163.296C51.953 163.143 52.4631 162.822 52.8489 162.376C53.2347 161.93 53.4787 161.379 53.5495 160.792L54.1859 155.334C54.2522 154.706 54.5235 154.118 54.9576 153.66C55.4272 153.181 56.0161 152.835 56.6637 152.66L89.7268 143.8C90.1711 143.681 90.6334 143.644 91.0912 143.69C91.7307 143.769 92.3252 144.061 92.778 144.521L97.6823 149.364C98.048 149.726 98.5019 149.985 98.9987 150.117C99.4955 150.249 100.018 150.249 100.514 150.116L179.665 128.907C180.42 128.705 181.223 128.811 181.9 129.203C182.576 129.594 183.07 130.239 183.273 130.995L202.601 203.129C202.701 203.503 202.727 203.893 202.677 204.277C202.627 204.661 202.501 205.032 202.308 205.367C202.115 205.702 201.858 205.996 201.551 206.232C201.244 206.468 200.894 206.64 200.521 206.74Z" fill="white"/>
    </mask>
    <g mask="url(#mask0_1_993)">
    <path opacity="0.1" d="M200.521 206.74L71.8861 241.208C71.5126 241.308 71.1231 241.333 70.7397 241.283C70.3563 241.232 69.9865 241.106 69.6516 240.912C69.3166 240.718 69.023 240.46 68.7874 240.153C68.5519 239.845 68.379 239.495 68.2787 239.12L48.9545 167.001C48.752 166.246 48.8574 165.441 49.2476 164.763C49.6377 164.086 50.2806 163.592 51.0348 163.39L51.384 163.296C51.953 163.143 52.4631 162.822 52.8489 162.376C53.2347 161.93 53.4787 161.379 53.5495 160.792L54.1859 155.334C54.2522 154.706 54.5235 154.118 54.9576 153.66C55.4272 153.181 56.0161 152.835 56.6637 152.66L89.7268 143.8C90.1711 143.681 90.6334 143.644 91.0912 143.69C91.7307 143.769 92.3252 144.061 92.778 144.521L97.6823 149.364C98.048 149.726 98.5019 149.985 98.9987 150.117C99.4955 150.249 100.018 150.249 100.514 150.116L179.665 128.907C180.42 128.705 181.223 128.811 181.9 129.203C182.576 129.594 183.07 130.239 183.273 130.995L202.601 203.129C202.701 203.503 202.727 203.893 202.677 204.277C202.627 204.661 202.501 205.032 202.308 205.367C202.115 205.702 201.858 205.996 201.551 206.232C201.244 206.468 200.894 206.64 200.521 206.74Z" fill="black"/>
    </g>
    <path d="M200.521 206.74L71.8861 241.208C71.5126 241.308 71.1231 241.333 70.7397 241.283C70.3563 241.232 69.9865 241.106 69.6516 240.912C69.3166 240.718 69.023 240.46 68.7874 240.153C68.5519 239.845 68.379 239.495 68.2787 239.12L48.9545 167.001C48.752 166.246 48.8574 165.441 49.2476 164.763C49.6377 164.086 50.2806 163.592 51.0348 163.39L51.384 163.296C51.953 163.143 52.4631 162.822 52.8489 162.376C53.2347 161.93 53.4787 161.379 53.5495 160.792L54.1859 155.334C54.2522 154.706 54.5235 154.118 54.9576 153.66C55.4272 153.181 56.0161 152.835 56.6637 152.66L89.7268 143.8C90.1711 143.681 90.6334 143.644 91.0912 143.69C91.7307 143.769 92.3252 144.061 92.778 144.521L97.6823 149.364C98.048 149.726 98.5019 149.985 98.9987 150.117C99.4955 150.249 100.018 150.249 100.514 150.116L179.665 128.907C180.42 128.705 181.223 128.811 181.9 129.203C182.576 129.594 183.07 130.239 183.273 130.995L202.601 203.129C202.701 203.503 202.727 203.893 202.677 204.277C202.627 204.661 202.501 205.032 202.308 205.367C202.115 205.702 201.858 205.996 201.551 206.232C201.244 206.468 200.894 206.64 200.521 206.74Z" stroke="black" stroke-miterlimit="10"/>
    <path d="M84.4729 154.169L63.8881 159.685C63.397 159.817 62.8735 159.747 62.4329 159.492C61.9924 159.237 61.6708 158.818 61.5389 158.326C61.4728 158.082 61.4554 157.827 61.4877 157.576C61.52 157.326 61.6013 157.084 61.7271 156.865C61.8528 156.646 62.0204 156.454 62.2204 156.3C62.4203 156.147 62.6487 156.034 62.8923 155.969L83.4771 150.453C83.9696 150.321 84.4945 150.39 84.9363 150.646C85.3781 150.902 85.7005 151.323 85.8328 151.816C85.8982 152.06 85.9149 152.315 85.8819 152.565C85.8489 152.816 85.767 153.057 85.6406 153.276C85.5143 153.494 85.3461 153.686 85.1458 153.839C84.9454 153.993 84.7167 154.105 84.4729 154.169Z" fill="black"/>
    <path d="M203.893 219.325L75.258 253.792C74.5038 253.994 73.7 253.888 73.0235 253.496C72.347 253.105 71.8532 252.461 71.6507 251.705L52.3264 179.586C52.1239 178.83 52.2294 178.025 52.6195 177.348C53.0096 176.67 53.6525 176.176 54.4067 175.974L54.7559 175.881C55.3253 175.728 55.8358 175.407 56.2217 174.961C56.6076 174.515 56.8513 173.963 56.9214 173.377L57.5592 167.924C57.624 167.295 57.8954 166.706 58.3309 166.25C58.7991 165.768 59.3885 165.422 60.037 165.249L93.1001 156.39C93.5444 156.27 94.0067 156.233 94.4645 156.28C95.1055 156.358 95.7009 156.653 96.1527 157.115L101.058 161.963C101.424 162.325 101.878 162.585 102.375 162.717C102.871 162.849 103.394 162.848 103.89 162.715L183.041 141.507C183.796 141.305 184.599 141.411 185.276 141.802C185.952 142.194 186.446 142.838 186.649 143.594L205.973 215.713C206.176 216.469 206.07 217.274 205.68 217.951C205.29 218.629 204.647 219.123 203.893 219.325Z" fill="black" stroke="black" stroke-miterlimit="10"/>
    <path d="M90.3507 136.656L69.2485 139.593C68.7441 139.662 68.2328 139.527 67.8263 139.22C67.4198 138.913 67.151 138.457 67.0787 137.952C67.0094 137.446 67.1435 136.933 67.4515 136.526C67.7596 136.12 68.2163 135.853 68.7213 135.783L89.8184 132.848C90.3231 132.778 90.835 132.911 91.2419 133.219C91.6487 133.527 91.9172 133.983 91.9882 134.489C92.0231 134.739 92.0084 134.994 91.9449 135.238C91.8814 135.482 91.7705 135.712 91.6184 135.913C91.4663 136.114 91.276 136.283 91.0585 136.411C90.8409 136.538 90.6004 136.622 90.3507 136.656Z" fill="#EE26C2"/>
    <path opacity="0.5" d="M90.3507 136.656L69.2485 139.593C68.7441 139.662 68.2328 139.527 67.8263 139.22C67.4198 138.913 67.151 138.457 67.0787 137.952C67.0094 137.446 67.1435 136.933 67.4515 136.526C67.7596 136.12 68.2163 135.853 68.7213 135.783L89.8184 132.848C90.3231 132.778 90.835 132.911 91.2419 133.219C91.6487 133.527 91.9172 133.983 91.9882 134.489C92.0231 134.739 92.0084 134.994 91.9449 135.238C91.8814 135.482 91.7705 135.712 91.6184 135.913C91.4663 136.114 91.276 136.283 91.0585 136.411C90.8409 136.538 90.6004 136.622 90.3507 136.656Z" fill="white"/>
    <path d="M87.8464 166.759L67.2616 172.274C67.0179 172.34 66.7638 172.356 66.5137 172.323C66.2636 172.29 66.0224 172.207 65.8041 172.08C65.5857 171.954 65.3944 171.785 65.2412 171.584C65.0879 171.383 64.9757 171.154 64.911 170.91C64.779 170.417 64.8473 169.892 65.101 169.451C65.3547 169.009 65.7731 168.686 66.2644 168.553L86.8492 163.037C87.3417 162.905 87.8666 162.975 88.3084 163.23C88.7501 163.486 89.0726 163.907 89.2049 164.4C89.3371 164.894 89.2682 165.42 89.0135 165.862C88.7587 166.304 88.3389 166.627 87.8464 166.759Z" fill="#EE26C2"/>
    <path opacity="0.5" d="M87.8464 166.759L67.2616 172.274C67.0179 172.34 66.7638 172.356 66.5137 172.323C66.2636 172.29 66.0224 172.207 65.8041 172.08C65.5857 171.954 65.3944 171.785 65.2412 171.584C65.0879 171.383 64.9757 171.154 64.911 170.91C64.779 170.417 64.8473 169.892 65.101 169.451C65.3547 169.009 65.7731 168.686 66.2644 168.553L86.8492 163.037C87.3417 162.905 87.8666 162.975 88.3084 163.23C88.7501 163.486 89.0726 163.907 89.2049 164.4C89.3371 164.894 89.2682 165.42 89.0135 165.862C88.7587 166.304 88.3389 166.627 87.8464 166.759Z" fill="white"/>
    <path d="M193.059 162.07L56.0088 198.793C54.536 199.187 53.6626 200.704 54.058 202.179L76.3235 285.276C76.719 286.751 78.2334 287.628 79.7062 287.233L216.756 250.511C218.229 250.116 219.102 248.6 218.707 247.124L196.441 164.028C196.046 162.552 194.531 161.676 193.059 162.07Z" fill="#2676EE"/>
    <path d="M193.059 162.07L56.0088 198.793C54.536 199.187 53.6626 200.704 54.058 202.179L76.3235 285.276C76.719 286.751 78.2334 287.628 79.7062 287.233L216.756 250.511C218.229 250.116 219.102 248.6 218.707 247.124L196.441 164.028C196.046 162.552 194.531 161.676 193.059 162.07Z" stroke="black" stroke-miterlimit="10"/>
    <path d="M154.37 207.097L112.032 218.441C111.269 218.646 110.816 219.431 111.021 220.196L116.821 241.84C117.026 242.605 117.81 243.059 118.573 242.854L160.912 231.51C161.675 231.305 162.127 230.52 161.922 229.756L156.123 208.111C155.918 207.346 155.133 206.892 154.37 207.097Z" fill="black" stroke="black" stroke-miterlimit="10"/>
    <path d="M154.37 207.097L112.032 218.441C111.269 218.646 110.816 219.431 111.021 220.196L112.268 224.85C112.473 225.614 113.258 226.068 114.021 225.864L156.359 214.519C157.122 214.315 157.575 213.53 157.37 212.765L156.123 208.111C155.918 207.346 155.133 206.892 154.37 207.097Z" fill="white" stroke="black" stroke-miterlimit="10"/>
    <path d="M77.2383 132.148L80.4782 132.682C80.4782 132.682 80.7685 131.903 80.041 131.799L78.9144 131.4" fill="white"/>
    <path d="M77.2383 132.148L80.4782 132.682C80.4782 132.682 80.7685 131.903 80.041 131.799L78.9144 131.4" stroke="black" stroke-linejoin="round"/>
    </g>
    <defs>
    <clipPath id="clip0_1_993">
    <rect width="222.618" height="157.651" fill="white" transform="translate(0 149.91) rotate(-15)"/>
    </clipPath>
    </defs>
  </symbol>

  <symbol id="arrow-up" viewBox="0 0 24 24" fill="none" xmlns="http://www.w3.org/2000/svg">
    <path d="M19.92 15.05L13.4 8.53001C12.63 7.76001 11.37 7.76001 10.6 8.53001L4.07999 15.05" stroke="#292D32" stroke-width="1.5" stroke-miterlimit="10" stroke-linecap="round" stroke-linejoin="round"/>
  </symbol>

  <symbol id='refresh' viewBox="0 0 24 24" fill="none" xmlns="http://www.w3.org/2000/svg">
    <path d="M14.55 21.67C18.84 20.54 22 16.64 22 12C22 6.48 17.56 2 12 2C5.33 2 2 7.56 2 7.56M2 7.56V3M2 7.56H4.01H6.44" stroke="white" stroke-width="1.5" stroke-linecap="round" stroke-linejoin="round"/>
    <path d="M2 12C2 17.52 6.48 22 12 22" stroke="white" stroke-width="1.5" stroke-linecap="round" stroke-linejoin="round" stroke-dasharray="3 3"/>
  </symbol>

  <symbol id='warning' viewBox="0 0 16 16" fill="none" xmlns="http://www.w3.org/2000/svg">
    <path fill-rule="evenodd" clip-rule="evenodd" d="M8 16C12.4183 16 16 12.4183 16 8C16 3.58172 12.4183 0 8 0C3.58172 0 0 3.58172 0 8C0 12.4183 3.58172 16 8 16ZM8.26136 10.2727L8.34659 4H7.1875L7.27273 10.2727H8.26136ZM7.22585 12.5696C7.37642 12.7202 7.55682 12.7955 7.76705 12.7955C7.90909 12.7955 8.03693 12.7614 8.15057 12.6932C8.26705 12.6222 8.35938 12.5284 8.42756 12.4119C8.49858 12.2955 8.53409 12.1676 8.53409 12.0284C8.53409 11.8182 8.45881 11.6378 8.30824 11.4872C8.15767 11.3366 7.97727 11.2614 7.76705 11.2614C7.55682 11.2614 7.37642 11.3366 7.22585 11.4872C7.07528 11.6378 7 11.8182 7 12.0284C7 12.2386 7.07528 12.419 7.22585 12.5696Z" fill="#949494"/>
  </symbol>

  <!-- chat -->

  <symbol id="folder" viewBox="0 0 24 24" fill="none" xmlns="http://www.w3.org/2000/svg">
    <path d="M12.0601 16.5V11.5" stroke="#292D32" stroke-width="1.5" stroke-miterlimit="10" stroke-linecap="round" stroke-linejoin="round"/>
    <path d="M14.5 14H9.5" stroke="#292D32" stroke-width="1.5" stroke-miterlimit="10" stroke-linecap="round" stroke-linejoin="round"/>
    <path d="M2 13.02V7C2 3 3 2 7 2H8.5C10 2 10.33 2.44 10.9 3.2L12.4 5.2C12.78 5.7 13 6 14 6H17C21 6 22 7 22 11" stroke="#292D32" stroke-width="1.5" stroke-miterlimit="10" stroke-linecap="round" stroke-linejoin="round"/>
    <path d="M22 14.99V17C22 21 21 22 17 22H7C3 22 2 21 2 17" stroke="#292D32" stroke-width="1.5" stroke-miterlimit="10" stroke-linecap="round" stroke-linejoin="round"/>
  </symbol>

  <symbol id='gallery' viewBox="0 0 24 24" fill="none" xmlns="http://www.w3.org/2000/svg">
    <path d="M2 12.99V15C2 20 4 22 9 22H15C20 22 22 20 22 15V9C22 4 20 2 15 2H9C4 2 2 4 2 9" stroke="#292D32" stroke-width="1.5" stroke-linecap="round" stroke-linejoin="round"/>
    <path d="M11 8C11 9.1 10.1 10 9 10C7.9 10 7 9.1 7 8C7 6.9 7.9 6 9 6" stroke="#292D32" stroke-width="1.5" stroke-linecap="round" stroke-linejoin="round"/>
    <path d="M2.66992 18.95L7.59992 15.64C8.38992 15.11 9.52992 15.17 10.2399 15.78L10.5699 16.07C11.3499 16.74 12.6099 16.74 13.3899 16.07L17.5499 12.5C18.3299 11.83 19.5899 11.83 20.3699 12.5L21.9999 13.9" stroke="#292D32" stroke-width="1.5" stroke-linecap="round" stroke-linejoin="round"/>
  </symbol>

  <symbol id="send" viewBox="0 0 24 24" fill="none" xmlns="http://www.w3.org/2000/svg">
    <path d="M15.8901 3.49C19.7001 2.22 21.7701 4.3 20.5101 8.11L17.6801 16.6C15.7801 22.31 12.6601 22.31 10.7601 16.6L9.92005 14.08L7.40005 13.24C1.69005 11.34 1.69005 8.23 7.40005 6.32L12.0001 4.79" stroke="white" stroke-width="1.5" stroke-linecap="round" stroke-linejoin="round"/>
    <path d="M10.11 13.65L13.69 10.06" stroke="white" stroke-width="1.5" stroke-linecap="round" stroke-linejoin="round"/>
  </symbol>  

  <symbol id="three-button" viewBox="0 0 5 21" fill="none" xmlns="http://www.w3.org/2000/svg">
    <circle cx="2.5" cy="2.5" r="2.5" fill="#2F2F2F"/>
    <circle cx="2.5" cy="10.5" r="2.5" fill="#2F2F2F"/>
    <circle cx="2.5" cy="18.5" r="2.5" fill="#2F2F2F"/>
  </symbol>

  <svg id='chat-empty' viewBox="0 0 190 193" fill="none" xmlns="http://www.w3.org/2000/svg">
    <mask id="mask0_1_967" style="mask-type:luminance" maskUnits="userSpaceOnUse" x="0" y="0" width="190" height="194">
    <path d="M94.7366 0C119.859 0 143.952 9.995 161.717 27.7862C179.481 45.5774 189.461 69.7075 189.461 94.8681V98.3381C189.461 110.796 187.011 123.133 182.25 134.643C177.49 146.153 170.513 156.611 161.717 165.42C152.921 174.229 142.478 181.217 130.986 185.985C119.493 190.752 107.176 193.206 94.7366 193.206C69.6142 193.206 45.5207 183.211 27.7565 165.42C9.99229 147.629 0.0124512 123.499 0.0124512 98.3381V94.8681C0.0124512 69.7075 9.99229 45.5774 27.7565 27.7862C45.5207 9.995 69.6142 0 94.7366 0Z" fill="white"/>
    </mask>
    <g mask="url(#mask0_1_967)">
    <path opacity="0.8" d="M177.822 68.8518C147.886 51.7087 121.366 65.8219 108.109 80.8502C94.8526 95.8785 84.9645 111.064 68.3332 113.846C51.7018 116.627 26.4221 109.562 7.60752 122.845C-11.2071 136.128 -11.1406 171.408 3.75509 191.405C18.6507 211.403 57.1992 220.977 101.693 227.413C117.655 229.835 133.945 228.929 149.543 224.752L169.748 217.396C179.612 212.887 187.892 207.797 194.895 203.676C205.551 197.368 209.301 182.013 211.345 170.759C214.303 153.896 214.047 136.624 210.589 119.857C206.101 98.7266 195.911 79.208 177.822 68.8518Z" fill="#669DF0"/>
    <path d="M124.197 34.0506C124.197 34.0506 140.363 28.2821 151.609 44.6071C162.856 60.932 158.208 69.6357 165.596 81.2045C172.983 92.7734 161.273 107.367 165.405 111.276C169.537 115.185 186.524 127.594 179.391 153.343C176.098 165.255 204.966 185.54 190.281 195.084C173.224 206.176 111.832 205.603 98.9898 205.004C78.9643 204.062 41.7739 198.987 33.5094 182.44C25.2449 165.892 22.5303 145.065 30.3625 134.49C38.1947 123.914 43.2933 119.916 36.8661 108.283C33.5412 102.267 14.145 82.1405 34.1706 71.0428C43.1535 66.0638 35.5183 45.5239 46.9679 35.184C59.5744 23.7934 66.2306 33.7323 76.1162 24.8376C87.3369 14.7205 120.478 7.68494 124.197 34.0506Z" fill="black"/>
    <path d="M108.717 130.014H78.2458V169.846H108.717V130.014Z" fill="#EFB2A2"/>
    <path d="M108.717 142.862V130.02H78.2395V149.217C87.6738 150.286 99.4984 146.625 108.717 142.862Z" fill="black"/>
    <path d="M92.499 139.673C123.969 139.673 149.48 115.759 149.48 86.2599C149.48 56.761 123.969 32.8473 92.499 32.8473C61.0294 32.8473 35.5183 56.761 35.5183 86.2599C35.5183 115.759 61.0294 139.673 92.499 139.673Z" fill="#EFB2A2"/>
    <path d="M105.843 89.9273C105.843 89.9273 119.632 62.5493 141.024 83.2038C141.024 83.2038 128.888 112.575 105.843 89.9273Z" fill="white"/>
    <path d="M85.8175 104.902C85.7147 104.902 85.6144 104.871 85.5285 104.815C85.4425 104.758 85.3747 104.678 85.3331 104.584C85.2915 104.49 85.2779 104.386 85.2939 104.284C85.3099 104.183 85.3548 104.088 85.4233 104.011L91.3357 97.3512C91.4344 97.2438 91.5714 97.1797 91.7171 97.1729C91.7896 97.1709 91.8618 97.1834 91.9295 97.2096C91.9972 97.2359 92.059 97.2753 92.1113 97.3257L98.1062 103.228C98.1563 103.277 98.1962 103.336 98.2236 103.401C98.2511 103.466 98.2655 103.535 98.2661 103.605C98.2667 103.676 98.2534 103.746 98.2271 103.811C98.2007 103.876 98.1618 103.935 98.1126 103.986C98.0633 104.036 98.0047 104.076 97.94 104.103C97.8753 104.131 97.8059 104.145 97.7356 104.146C97.6654 104.146 97.5957 104.133 97.5306 104.107C97.4654 104.08 97.4061 104.041 97.3561 103.992L91.7616 98.4845L86.218 104.724C86.1671 104.78 86.1053 104.825 86.0364 104.855C85.9674 104.886 85.8929 104.902 85.8175 104.902Z" fill="black"/>
    <path d="M132.328 70.2151C132.25 70.2173 132.174 70.1997 132.105 70.1642C121.247 65.0324 112.925 70.0814 112.842 70.1642C112.783 70.2014 112.716 70.2265 112.647 70.238C112.578 70.2495 112.507 70.2472 112.438 70.2312C112.37 70.2152 112.305 70.1859 112.248 70.1449C112.191 70.1039 112.142 70.0521 112.105 69.9923C112.068 69.9325 112.043 69.866 112.031 69.7965C112.02 69.727 112.022 69.656 112.038 69.5874C112.054 69.5188 112.083 69.4541 112.124 69.3968C112.165 69.3396 112.217 69.2909 112.277 69.2537C112.633 69.0309 121.177 63.8354 132.557 69.2219C132.666 69.2737 132.755 69.3615 132.809 69.4709C132.862 69.5802 132.877 69.7045 132.85 69.8232C132.823 69.9419 132.757 70.048 132.662 70.1239C132.567 70.1997 132.449 70.2409 132.328 70.2406V70.2151Z" fill="black"/>
    <path d="M77.2287 70.4443C77.1198 70.4433 77.0137 70.4101 76.9235 70.3488C76.8473 70.2915 68.6972 64.7841 57.4129 69.3046C57.2828 69.3506 57.1399 69.3443 57.0143 69.2871C56.8887 69.2299 56.7901 69.1262 56.7392 68.9978C56.6882 68.8693 56.6889 68.7262 56.741 68.5982C56.7931 68.4703 56.8927 68.3675 57.0188 68.3114C68.8497 63.568 77.1842 69.2282 77.5338 69.4766C77.5913 69.5161 77.6403 69.5666 77.6782 69.6252C77.716 69.6838 77.7418 69.7493 77.7543 69.818C77.7667 69.8866 77.7654 69.9571 77.7505 70.0253C77.7356 70.0934 77.7073 70.158 77.6674 70.2151C77.6189 70.2867 77.5535 70.3452 77.4769 70.3852C77.4003 70.4252 77.3151 70.4455 77.2287 70.4443Z" fill="black"/>
    <path d="M35.5438 94.8172C35.42 94.8177 35.3 94.7747 35.2047 94.6955C35.1094 94.6164 35.0449 94.5062 35.0225 94.3842C33.9163 88.4693 24.997 85.1394 24.9017 85.1075C24.7685 85.0586 24.6601 84.9586 24.6005 84.8296C24.5409 84.7007 24.5349 84.5533 24.5838 84.4199C24.6327 84.2865 24.7325 84.178 24.8613 84.1183C24.99 84.0586 25.1372 84.0526 25.2704 84.1015C25.6582 84.2416 34.8572 87.6734 36.0778 94.1869C36.0917 94.2567 36.0917 94.3286 36.0778 94.3984C36.0639 94.4682 36.0364 94.5346 35.9968 94.5937C35.9572 94.6529 35.9064 94.7036 35.8472 94.7431C35.788 94.7825 35.7217 94.8098 35.6519 94.8236L35.5438 94.8172Z" fill="black"/>
    <path d="M27.133 98.3254C27.0484 98.3257 26.9649 98.3056 26.8897 98.2668C26.8144 98.228 26.7496 98.1717 26.7007 98.1025C26.6184 97.9876 26.5849 97.8447 26.6075 97.7051C26.6301 97.5655 26.7071 97.4405 26.8215 97.3576L34.4502 91.8693C34.5658 91.7875 34.709 91.755 34.8485 91.7788C34.9879 91.8027 35.1122 91.881 35.1941 91.9966C35.2764 92.1115 35.3099 92.2544 35.2872 92.394C35.2646 92.5337 35.1877 92.6586 35.0733 92.7415L27.4445 98.2299C27.3524 98.292 27.244 98.3252 27.133 98.3254Z" fill="black"/>
    <path d="M80.4773 90.2648C80.4773 90.2648 65.9382 63.2815 45.1243 84.5345C45.1243 84.5218 58.0614 113.549 80.4773 90.2648Z" fill="white"/>
    <path d="M141.025 83.2038C132.455 74.9267 125.131 74.3664 119.371 76.6649C117.795 78.1594 116.605 80.0154 115.903 82.0729C115.201 84.1304 115.01 86.3279 115.344 88.4761C115.679 90.6243 116.53 92.6588 117.824 94.4045C119.118 96.1502 120.816 97.5548 122.773 98.4973C134.788 98.2935 141.025 83.2038 141.025 83.2038Z" fill="black"/>
    <path d="M80.5346 90.2457C80.5346 90.2457 72.1048 74.6529 58.9197 76.5439C57.1801 78.1539 55.8976 80.1969 55.2029 82.4648C54.5082 84.7327 54.4261 87.1445 54.9649 89.4545C55.5037 91.7646 56.6443 93.8903 58.2703 95.6152C59.8964 97.3401 61.9499 98.6026 64.2217 99.274C68.8943 99.1276 74.3553 96.6827 80.5346 90.2457Z" fill="black"/>
    <path d="M116.765 108.825C105.384 111.503 94.431 115.757 84.2219 121.463C84.2219 121.463 106.638 126.608 116.765 108.825Z" fill="#430400"/>
    <path d="M92.4927 32.8473C61.024 32.8473 34.7619 53.7501 35.512 86.2663C35.512 87.3232 46.2178 77.4989 51.7296 70.769C57.2414 64.0391 56.8154 48.2044 79.5492 56.9399C102.283 65.6754 116.523 44.2951 116.523 44.2951C118.825 58.1242 127.089 57.8886 136.93 64.2938C146.772 70.699 149.505 82.7071 146.066 94.4861C144.693 99.1785 142.855 113.663 144.025 116.917C148.285 109.436 149.473 95.3392 149.473 86.2663C149.473 56.7617 123.961 32.8473 92.4927 32.8473Z" fill="black"/>
    <path d="M108.716 156.367H78.2458V169.846L3.31836 178.9L4.32282 192.983L190.275 195.084L192.932 173.469L108.716 169.846V156.367Z" fill="#EE26C2"/>
    <path d="M165.958 89.9209L164.165 106.424C163.949 108.419 163.342 110.352 162.38 112.112C161.418 113.873 160.12 115.426 158.558 116.683C156.997 117.941 155.203 118.878 153.28 119.441C151.357 120.005 149.342 120.183 147.35 119.967L145.869 119.808C144.521 119.66 143.286 118.984 142.435 117.926C141.585 116.869 141.187 115.517 141.33 114.166L145.525 75.4424C145.574 75.0022 145.717 74.5776 145.944 74.1975C146.171 73.8174 146.477 73.4906 146.841 73.2394C147.346 72.8781 147.951 72.6844 148.571 72.6855C148.687 72.6792 148.804 72.6792 148.92 72.6855C146.968 61.1051 141.244 50.4974 132.64 42.5177C124.036 34.5379 113.036 29.6348 101.358 28.5733C89.6794 27.5119 77.9785 30.3518 68.0808 36.65C58.1832 42.9482 50.6454 52.3504 46.6436 63.3897C41.7791 71.9348 39.2789 81.6249 39.4007 91.4605C39.5225 101.296 42.262 110.921 47.3366 119.343L41.7358 119.948C39.7438 120.164 37.7287 119.986 35.8056 119.422C33.8826 118.859 32.0891 117.922 30.5277 116.664C28.9662 115.407 27.6674 113.853 26.7053 112.093C25.7433 110.333 25.1368 108.4 24.9206 106.405L23.1279 89.9018C22.9117 87.9064 23.0901 85.8878 23.653 83.9614C24.2159 82.035 25.1523 80.2385 26.4086 78.6747C27.6649 77.1108 29.2165 75.8101 30.9748 74.8469C32.7331 73.8837 34.6637 73.2769 36.6562 73.0612L37.4636 72.972C39.9488 59.0076 47.2856 46.3736 58.1762 37.3052C69.0667 28.2369 82.809 23.3187 96.9715 23.4208C111.134 23.523 124.804 28.6389 135.563 37.8634C146.322 47.0879 153.477 59.8264 155.761 73.8252C159.03 74.9537 161.82 77.161 163.673 80.0854C165.525 83.0098 166.331 86.4778 165.958 89.9209Z" fill="#EE26C2"/>
    <path d="M122.893 137.731C116.606 137.731 109.441 136.228 101.457 133.223L103.084 128.874C116.911 134.076 127.795 134.464 135.43 130.039C143.695 125.239 145.271 116.14 145.29 116.032L149.868 116.758C149.798 117.216 147.999 128.059 137.827 134.006C133.593 136.489 128.602 137.731 122.893 137.731Z" fill="#EE26C2"/>
    <path d="M100.465 136.126L95.4806 134.184C94.1726 133.674 93.1204 132.664 92.5554 131.377C91.9903 130.09 91.9586 128.631 92.4673 127.321C92.7189 126.671 93.0959 126.078 93.5767 125.575C94.0574 125.072 94.6325 124.669 95.269 124.388C95.9056 124.108 96.591 123.956 97.2862 123.942C97.9814 123.927 98.6727 124.05 99.3205 124.303L104.305 126.245C104.953 126.497 105.545 126.874 106.047 127.356C106.55 127.837 106.952 128.413 107.232 129.051C107.512 129.688 107.664 130.375 107.679 131.071C107.693 131.767 107.571 132.459 107.318 133.108C107.066 133.757 106.689 134.351 106.209 134.854C105.728 135.357 105.153 135.76 104.516 136.04C103.88 136.321 103.194 136.473 102.499 136.487C101.804 136.502 101.113 136.379 100.465 136.126Z" fill="black"/>
    </g>
  </svg>

  <!-- footer -->

  <symbol id='sms' viewBox="0 0 24 24" fill="none" xmlns="http://www.w3.org/2000/svg">
    <path d="M2 8.5C2 5 4 3.5 7 3.5H17C20 3.5 22 5 22 8.5V15.5C22 19 20 20.5 17 20.5H7" stroke="#292D32" stroke-width="1.5" stroke-miterlimit="10" stroke-linecap="round" stroke-linejoin="round"/>
    <path d="M17 9L13.87 11.5C12.84 12.32 11.15 12.32 10.12 11.5L7 9" stroke="#292D32" stroke-width="1.5" stroke-miterlimit="10" stroke-linecap="round" stroke-linejoin="round"/>
    <path d="M2 16.5H8" stroke="#292D32" stroke-width="1.5" stroke-miterlimit="10" stroke-linecap="round" stroke-linejoin="round"/>
    <path d="M2 12.5H5" stroke="#292D32" stroke-width="1.5" stroke-miterlimit="10" stroke-linecap="round" stroke-linejoin="round"/>
  </symbol>

  <symbol id='telegram' viewBox="0 0 40 40" fill="none" xmlns="http://www.w3.org/2000/svg">
    <path fill-rule="evenodd" clip-rule="evenodd" d="M40 20C40 31.0457 31.0457 40 20 40C8.95431 40 0 31.0457 0 20C0 8.95431 8.95431 0 20 0C31.0457 0 40 8.95431 40 20ZM20.7167 14.7649C18.7714 15.574 14.8835 17.2487 9.05313 19.7889C8.10637 20.1654 7.61041 20.5337 7.56526 20.8939C7.48896 21.5025 8.25117 21.7422 9.2891 22.0686C9.43028 22.1129 9.57657 22.1589 9.72654 22.2077C10.7477 22.5396 12.1214 22.928 12.8355 22.9434C13.4832 22.9574 14.2062 22.6903 15.0044 22.1422C20.4519 18.465 23.264 16.6064 23.4405 16.5663C23.565 16.538 23.7376 16.5025 23.8546 16.6064C23.9715 16.7104 23.96 16.9072 23.9476 16.96C23.8721 17.2819 20.8802 20.0635 19.3319 21.5029C18.8492 21.9517 18.5068 22.27 18.4368 22.3427C18.28 22.5056 18.1202 22.6596 17.9666 22.8077C17.0179 23.7222 16.3065 24.4081 18.006 25.528C18.8227 26.0662 19.4762 26.5112 20.1282 26.9552C20.8402 27.4401 21.5504 27.9238 22.4693 28.5261C22.7034 28.6796 22.927 28.839 23.1448 28.9942C23.9734 29.585 24.7179 30.1157 25.6376 30.0311C26.1721 29.9819 26.7241 29.4794 27.0044 27.9806C27.667 24.4386 28.9694 16.7641 29.2703 13.6016C29.2967 13.3246 29.2635 12.97 29.2369 12.8143C29.2103 12.6586 29.1546 12.4368 28.9523 12.2727C28.7126 12.0782 28.3427 12.0372 28.1773 12.0401C27.425 12.0534 26.2709 12.4547 20.7167 14.7649Z" fill="url(#paint0_linear_1_1056)"/>
    <defs>
    <linearGradient id="paint0_linear_1_1056" x1="20" y1="0" x2="20" y2="39.7033" gradientUnits="userSpaceOnUse">
    <stop stop-color="#2AABEE"/>
    <stop offset="1" stop-color="#229ED9"/>
    </linearGradient>
    </defs>
  </symbol>

  <symbol id='whatsapp' viewBox="0 0 40 40" fill="none" xmlns="http://www.w3.org/2000/svg">
    <circle cx="20" cy="20" r="20" fill="#20B038"/>
    <path d="M16.0916 13.9299C16.322 13.9393 16.5769 13.9501 16.8191 14.4885C16.9847 14.8566 17.2632 15.5427 17.4851 16.0896C17.6487 16.4925 17.7815 16.8198 17.8158 16.8884C17.8967 17.0501 17.9505 17.2388 17.8428 17.4547C17.8266 17.487 17.8117 17.5175 17.7974 17.5466C17.7164 17.7119 17.6569 17.8333 17.5198 17.9939C17.466 18.0566 17.4104 18.1243 17.3549 18.1919C17.2433 18.3276 17.1316 18.4634 17.0347 18.5601C16.8726 18.7213 16.7041 18.8964 16.8927 19.2198C17.0814 19.5434 17.7303 20.6017 18.6914 21.4586C19.7239 22.3792 20.6209 22.7686 21.0764 22.9664C21.1659 23.0052 21.2383 23.0366 21.2914 23.0633C21.6147 23.2249 21.8033 23.198 21.9919 22.9819C22.1806 22.7663 22.7998 22.0383 23.0154 21.7149C23.231 21.3913 23.4466 21.4452 23.7429 21.5529C24.0394 21.6607 25.6289 22.443 25.9522 22.6047C26.0152 22.6362 26.0742 22.6646 26.1288 22.691C26.3545 22.7999 26.5069 22.8734 26.5719 22.9819C26.6528 23.1172 26.6528 23.7642 26.3833 24.5191C26.1139 25.274 24.7938 26.0021 24.201 26.056C24.144 26.0612 24.0873 26.0679 24.0289 26.0747C23.4811 26.1391 22.7896 26.2204 20.3213 25.2471C17.2841 24.0494 15.2815 21.0812 14.8678 20.468C14.8338 20.4177 14.8106 20.3833 14.7983 20.367L14.7947 20.3621C14.6204 20.1292 13.4782 18.6027 13.4782 17.0231C13.4782 15.5342 14.21 14.7537 14.5468 14.3946C14.5698 14.3701 14.591 14.3475 14.6099 14.3268C14.9061 14.0033 15.2564 13.9223 15.472 13.9223C15.4838 13.9223 15.4956 13.9223 15.5074 13.9223C15.711 13.9223 15.9135 13.9223 16.0916 13.9299Z" fill="white"/>
    <path fill-rule="evenodd" clip-rule="evenodd" d="M8.85341 26.3448C7.70482 24.387 7.10442 22.1681 7.10442 19.8709C7.10442 12.7444 12.9257 6.94922 20.0522 6.94922C23.5241 6.94922 26.761 8.30665 29.2149 10.7344C31.6426 13.1882 33 16.4251 33 19.897C33 27.0235 27.1787 32.8187 20.0522 32.8187C17.8855 32.8187 15.745 32.2966 13.8655 31.2524L7 33.0536L8.85341 26.3448ZM10.9418 25.6139L11.2028 26.0054L10.1064 29.9733L14.1787 28.903L14.5703 29.138C16.2149 30.1299 18.1205 30.652 20.0522 30.652C25.9779 30.652 30.8072 25.8227 30.8072 19.897C30.8072 17.0255 29.6847 14.3107 27.6486 12.2745C25.6386 10.2645 22.9237 9.14199 20.0522 9.14199C14.1265 9.14199 9.29719 13.9452 9.29719 19.897C9.29719 21.9071 9.87149 23.891 10.9418 25.6139Z" fill="white"/>
  </symbol>

  <symbol id="world" viewBox="0 0 24 24" fill="none" xmlns="http://www.w3.org/2000/svg">
    <path d="M12 22C17.5228 22 22 17.5228 22 12C22 6.47715 17.5228 2 12 2C6.47715 2 2 6.47715 2 12C2 17.5228 6.47715 22 12 22Z" stroke="#292D32" stroke-width="1.5" stroke-linecap="round" stroke-linejoin="round"/>
    <path d="M8.0001 3H9.0001C7.0501 8.84 7.0501 15.16 9.0001 21H8.0001" stroke="#292D32" stroke-width="1.5" stroke-linecap="round" stroke-linejoin="round"/>
    <path d="M15 3C16.95 8.84 16.95 15.16 15 21" stroke="#292D32" stroke-width="1.5" stroke-linecap="round" stroke-linejoin="round"/>
    <path d="M3 16V15C8.84 16.95 15.16 16.95 21 15V16" stroke="#292D32" stroke-width="1.5" stroke-linecap="round" stroke-linejoin="round"/>
    <path d="M3 9.00001C8.84 7.05001 15.16 7.05001 21 9.00001" stroke="#292D32" stroke-width="1.5" stroke-linecap="round" stroke-linejoin="round"/>
  </symbol>

</svg>