<svg width="190" height="193" viewBox="0 0 190 193" fill="none" xmlns="http://www.w3.org/2000/svg">
<mask id="mask0_1_967" style="mask-type:luminance" maskUnits="userSpaceOnUse" x="0" y="0" width="190" height="194">
<path d="M94.7366 0C119.859 0 143.952 9.995 161.717 27.7862C179.481 45.5774 189.461 69.7075 189.461 94.8681V98.3381C189.461 110.796 187.011 123.133 182.25 134.643C177.49 146.153 170.513 156.611 161.717 165.42C152.921 174.229 142.478 181.217 130.986 185.985C119.493 190.752 107.176 193.206 94.7366 193.206C69.6142 193.206 45.5207 183.211 27.7565 165.42C9.99229 147.629 0.0124512 123.499 0.0124512 98.3381V94.8681C0.0124512 69.7075 9.99229 45.5774 27.7565 27.7862C45.5207 9.995 69.6142 0 94.7366 0Z" fill="white"/>
</mask>
<g mask="url(#mask0_1_967)">
<path opacity="0.8" d="M177.822 68.8518C147.886 51.7087 121.366 65.8219 108.109 80.8502C94.8526 95.8785 84.9645 111.064 68.3332 113.846C51.7018 116.627 26.4221 109.562 7.60752 122.845C-11.2071 136.128 -11.1406 171.408 3.75509 191.405C18.6507 211.403 57.1992 220.977 101.693 227.413C117.655 229.835 133.945 228.929 149.543 224.752L169.748 217.396C179.612 212.887 187.892 207.797 194.895 203.676C205.551 197.368 209.301 182.013 211.345 170.759C214.303 153.896 214.047 136.624 210.589 119.857C206.101 98.7266 195.911 79.208 177.822 68.8518Z" fill="#669DF0"/>
<path d="M124.197 34.0506C124.197 34.0506 140.363 28.2821 151.609 44.6071C162.856 60.932 158.208 69.6357 165.596 81.2045C172.983 92.7734 161.273 107.367 165.405 111.276C169.537 115.185 186.524 127.594 179.391 153.343C176.098 165.255 204.966 185.54 190.281 195.084C173.224 206.176 111.832 205.603 98.9898 205.004C78.9643 204.062 41.7739 198.987 33.5094 182.44C25.2449 165.892 22.5303 145.065 30.3625 134.49C38.1947 123.914 43.2933 119.916 36.8661 108.283C33.5412 102.267 14.145 82.1405 34.1706 71.0428C43.1535 66.0638 35.5183 45.5239 46.9679 35.184C59.5744 23.7934 66.2306 33.7323 76.1162 24.8376C87.3369 14.7205 120.478 7.68494 124.197 34.0506Z" fill="black"/>
<path d="M108.717 130.014H78.2458V169.846H108.717V130.014Z" fill="#EFB2A2"/>
<path d="M108.717 142.862V130.02H78.2395V149.217C87.6738 150.286 99.4984 146.625 108.717 142.862Z" fill="black"/>
<path d="M92.499 139.673C123.969 139.673 149.48 115.759 149.48 86.2599C149.48 56.761 123.969 32.8473 92.499 32.8473C61.0294 32.8473 35.5183 56.761 35.5183 86.2599C35.5183 115.759 61.0294 139.673 92.499 139.673Z" fill="#EFB2A2"/>
<path d="M105.843 89.9273C105.843 89.9273 119.632 62.5493 141.024 83.2038C141.024 83.2038 128.888 112.575 105.843 89.9273Z" fill="white"/>
<path d="M85.8175 104.902C85.7147 104.902 85.6144 104.871 85.5285 104.815C85.4425 104.758 85.3747 104.678 85.3331 104.584C85.2915 104.49 85.2779 104.386 85.2939 104.284C85.3099 104.183 85.3548 104.088 85.4233 104.011L91.3357 97.3512C91.4344 97.2438 91.5714 97.1797 91.7171 97.1729C91.7896 97.1709 91.8618 97.1834 91.9295 97.2096C91.9972 97.2359 92.059 97.2753 92.1113 97.3257L98.1062 103.228C98.1563 103.277 98.1962 103.336 98.2236 103.401C98.2511 103.466 98.2655 103.535 98.2661 103.605C98.2667 103.676 98.2534 103.746 98.2271 103.811C98.2007 103.876 98.1618 103.935 98.1126 103.986C98.0633 104.036 98.0047 104.076 97.94 104.103C97.8753 104.131 97.8059 104.145 97.7356 104.146C97.6654 104.146 97.5957 104.133 97.5306 104.107C97.4654 104.08 97.4061 104.041 97.3561 103.992L91.7616 98.4845L86.218 104.724C86.1671 104.78 86.1053 104.825 86.0364 104.855C85.9674 104.886 85.8929 104.902 85.8175 104.902Z" fill="black"/>
<path d="M132.328 70.2151C132.25 70.2173 132.174 70.1997 132.105 70.1642C121.247 65.0324 112.925 70.0814 112.842 70.1642C112.783 70.2014 112.716 70.2265 112.647 70.238C112.578 70.2495 112.507 70.2472 112.438 70.2312C112.37 70.2152 112.305 70.1859 112.248 70.1449C112.191 70.1039 112.142 70.0521 112.105 69.9923C112.068 69.9325 112.043 69.866 112.031 69.7965C112.02 69.727 112.022 69.656 112.038 69.5874C112.054 69.5188 112.083 69.4541 112.124 69.3968C112.165 69.3396 112.217 69.2909 112.277 69.2537C112.633 69.0309 121.177 63.8354 132.557 69.2219C132.666 69.2737 132.755 69.3615 132.809 69.4709C132.862 69.5802 132.877 69.7045 132.85 69.8232C132.823 69.9419 132.757 70.048 132.662 70.1239C132.567 70.1997 132.449 70.2409 132.328 70.2406V70.2151Z" fill="black"/>
<path d="M77.2287 70.4443C77.1198 70.4433 77.0137 70.4101 76.9235 70.3488C76.8473 70.2915 68.6972 64.7841 57.4129 69.3046C57.2828 69.3506 57.1399 69.3443 57.0143 69.2871C56.8887 69.2299 56.7901 69.1262 56.7392 68.9978C56.6882 68.8693 56.6889 68.7262 56.741 68.5982C56.7931 68.4703 56.8927 68.3675 57.0188 68.3114C68.8497 63.568 77.1842 69.2282 77.5338 69.4766C77.5913 69.5161 77.6403 69.5666 77.6782 69.6252C77.716 69.6838 77.7418 69.7493 77.7543 69.818C77.7667 69.8866 77.7654 69.9571 77.7505 70.0253C77.7356 70.0934 77.7073 70.158 77.6674 70.2151C77.6189 70.2867 77.5535 70.3452 77.4769 70.3852C77.4003 70.4252 77.3151 70.4455 77.2287 70.4443Z" fill="black"/>
<path d="M35.5438 94.8172C35.42 94.8177 35.3 94.7747 35.2047 94.6955C35.1094 94.6164 35.0449 94.5062 35.0225 94.3842C33.9163 88.4693 24.997 85.1394 24.9017 85.1075C24.7685 85.0586 24.6601 84.9586 24.6005 84.8296C24.5409 84.7007 24.5349 84.5533 24.5838 84.4199C24.6327 84.2865 24.7325 84.178 24.8613 84.1183C24.99 84.0586 25.1372 84.0526 25.2704 84.1015C25.6582 84.2416 34.8572 87.6734 36.0778 94.1869C36.0917 94.2567 36.0917 94.3286 36.0778 94.3984C36.0639 94.4682 36.0364 94.5346 35.9968 94.5937C35.9572 94.6529 35.9064 94.7036 35.8472 94.7431C35.788 94.7825 35.7217 94.8098 35.6519 94.8236L35.5438 94.8172Z" fill="black"/>
<path d="M27.133 98.3254C27.0484 98.3257 26.9649 98.3056 26.8897 98.2668C26.8144 98.228 26.7496 98.1717 26.7007 98.1025C26.6184 97.9876 26.5849 97.8447 26.6075 97.7051C26.6301 97.5655 26.7071 97.4405 26.8215 97.3576L34.4502 91.8693C34.5658 91.7875 34.709 91.755 34.8485 91.7788C34.9879 91.8027 35.1122 91.881 35.1941 91.9966C35.2764 92.1115 35.3099 92.2544 35.2872 92.394C35.2646 92.5337 35.1877 92.6586 35.0733 92.7415L27.4445 98.2299C27.3524 98.292 27.244 98.3252 27.133 98.3254Z" fill="black"/>
<path d="M80.4773 90.2648C80.4773 90.2648 65.9382 63.2815 45.1243 84.5345C45.1243 84.5218 58.0614 113.549 80.4773 90.2648Z" fill="white"/>
<path d="M141.025 83.2038C132.455 74.9267 125.131 74.3664 119.371 76.6649C117.795 78.1594 116.605 80.0154 115.903 82.0729C115.201 84.1304 115.01 86.3279 115.344 88.4761C115.679 90.6243 116.53 92.6588 117.824 94.4045C119.118 96.1502 120.816 97.5548 122.773 98.4973C134.788 98.2935 141.025 83.2038 141.025 83.2038Z" fill="black"/>
<path d="M80.5346 90.2457C80.5346 90.2457 72.1048 74.6529 58.9197 76.5439C57.1801 78.1539 55.8976 80.1969 55.2029 82.4648C54.5082 84.7327 54.4261 87.1445 54.9649 89.4545C55.5037 91.7646 56.6443 93.8903 58.2703 95.6152C59.8964 97.3401 61.9499 98.6026 64.2217 99.274C68.8943 99.1276 74.3553 96.6827 80.5346 90.2457Z" fill="black"/>
<path d="M116.765 108.825C105.384 111.503 94.431 115.757 84.2219 121.463C84.2219 121.463 106.638 126.608 116.765 108.825Z" fill="#430400"/>
<path d="M92.4927 32.8473C61.024 32.8473 34.7619 53.7501 35.512 86.2663C35.512 87.3232 46.2178 77.4989 51.7296 70.769C57.2414 64.0391 56.8154 48.2044 79.5492 56.9399C102.283 65.6754 116.523 44.2951 116.523 44.2951C118.825 58.1242 127.089 57.8886 136.93 64.2938C146.772 70.699 149.505 82.7071 146.066 94.4861C144.693 99.1785 142.855 113.663 144.025 116.917C148.285 109.436 149.473 95.3392 149.473 86.2663C149.473 56.7617 123.961 32.8473 92.4927 32.8473Z" fill="black"/>
<path d="M108.716 156.367H78.2458V169.846L3.31836 178.9L4.32282 192.983L190.275 195.084L192.932 173.469L108.716 169.846V156.367Z" fill="#EE26C2"/>
<path d="M165.958 89.9209L164.165 106.424C163.949 108.419 163.342 110.352 162.38 112.112C161.418 113.873 160.12 115.426 158.558 116.683C156.997 117.941 155.203 118.878 153.28 119.441C151.357 120.005 149.342 120.183 147.35 119.967L145.869 119.808C144.521 119.66 143.286 118.984 142.435 117.926C141.585 116.869 141.187 115.517 141.33 114.166L145.525 75.4424C145.574 75.0022 145.717 74.5776 145.944 74.1975C146.171 73.8174 146.477 73.4906 146.841 73.2394C147.346 72.8781 147.951 72.6844 148.571 72.6855C148.687 72.6792 148.804 72.6792 148.92 72.6855C146.968 61.1051 141.244 50.4974 132.64 42.5177C124.036 34.5379 113.036 29.6348 101.358 28.5733C89.6794 27.5119 77.9785 30.3518 68.0808 36.65C58.1832 42.9482 50.6454 52.3504 46.6436 63.3897C41.7791 71.9348 39.2789 81.6249 39.4007 91.4605C39.5225 101.296 42.262 110.921 47.3366 119.343L41.7358 119.948C39.7438 120.164 37.7287 119.986 35.8056 119.422C33.8826 118.859 32.0891 117.922 30.5277 116.664C28.9662 115.407 27.6674 113.853 26.7053 112.093C25.7433 110.333 25.1368 108.4 24.9206 106.405L23.1279 89.9018C22.9117 87.9064 23.0901 85.8878 23.653 83.9614C24.2159 82.035 25.1523 80.2385 26.4086 78.6747C27.6649 77.1108 29.2165 75.8101 30.9748 74.8469C32.7331 73.8837 34.6637 73.2769 36.6562 73.0612L37.4636 72.972C39.9488 59.0076 47.2856 46.3736 58.1762 37.3052C69.0667 28.2369 82.809 23.3187 96.9715 23.4208C111.134 23.523 124.804 28.6389 135.563 37.8634C146.322 47.0879 153.477 59.8264 155.761 73.8252C159.03 74.9537 161.82 77.161 163.673 80.0854C165.525 83.0098 166.331 86.4778 165.958 89.9209Z" fill="#EE26C2"/>
<path d="M122.893 137.731C116.606 137.731 109.441 136.228 101.457 133.223L103.084 128.874C116.911 134.076 127.795 134.464 135.43 130.039C143.695 125.239 145.271 116.14 145.29 116.032L149.868 116.758C149.798 117.216 147.999 128.059 137.827 134.006C133.593 136.489 128.602 137.731 122.893 137.731Z" fill="#EE26C2"/>
<path d="M100.465 136.126L95.4806 134.184C94.1726 133.674 93.1204 132.664 92.5554 131.377C91.9903 130.09 91.9586 128.631 92.4673 127.321C92.7189 126.671 93.0959 126.078 93.5767 125.575C94.0574 125.072 94.6325 124.669 95.269 124.388C95.9056 124.108 96.591 123.956 97.2862 123.942C97.9814 123.927 98.6727 124.05 99.3205 124.303L104.305 126.245C104.953 126.497 105.545 126.874 106.047 127.356C106.55 127.837 106.952 128.413 107.232 129.051C107.512 129.688 107.664 130.375 107.679 131.071C107.693 131.767 107.571 132.459 107.318 133.108C107.066 133.757 106.689 134.351 106.209 134.854C105.728 135.357 105.153 135.76 104.516 136.04C103.88 136.321 103.194 136.473 102.499 136.487C101.804 136.502 101.113 136.379 100.465 136.126Z" fill="black"/>
</g>
</svg>
