<svg width="32" height="30" viewBox="0 0 32 30" fill="none" xmlns="http://www.w3.org/2000/svg">
<path fill-rule="evenodd" clip-rule="evenodd" d="M23.4197 3.17544C22.9006 2.79762 22.3547 2.45298 21.7847 2.14465C18.9385 0.605109 15.6626 0.062922 12.4783 0.598077C12.4266 0.606524 12.375 0.615261 12.3233 0.624288C11.11 0.831736 9.93583 1.19239 8.80088 1.70624C7.66593 2.2201 6.61191 2.86827 5.63881 3.65074C4.68239 4.42567 3.8236 5.32734 3.06241 6.35577C2.31335 7.38877 1.7059 8.52357 1.24009 9.76017C0.774267 10.9968 0.482038 12.2503 0.3634 13.5208C0.261451 14.7837 0.311918 16.0279 0.514799 17.2534C0.734371 18.4713 1.10108 19.6477 1.61494 20.7826C1.69335 20.9558 1.77474 21.1271 1.85912 21.2964C2.33803 22.2722 2.92815 23.1973 3.62258 24.0521C5.73888 26.6572 8.69297 28.4478 11.9815 29.119C15.27 29.7901 18.6896 29.3002 21.6574 27.7328C24.6253 26.1654 26.9578 23.6174 28.2576 20.523L23.0572 18.3386C22.2085 20.3537 20.6287 22.0221 18.5941 22.9584L18.5761 22.8632C17.8332 23.2186 17.0281 23.4762 16.1745 23.6169C15.0708 23.7988 13.981 23.7695 12.9464 23.5587C9.52336 22.7917 6.74041 20.0201 6.13493 16.3464C5.33869 11.5153 8.60962 6.95343 13.4407 6.15719C16.2422 5.69547 18.9531 6.60137 20.8918 8.38605C21.8184 9.27254 22.5599 10.3634 23.0384 11.6029L28.9598 9.39167L28.9877 9.46655C29.8276 8.53607 30.7225 7.45571 31.6418 6.31606C29.8198 6.21157 28.0915 6.14082 26.6267 6.1777C27.027 4.66425 27.3631 2.77951 27.6836 0.772933C26.1148 1.59986 24.6377 2.40823 23.4197 3.17544Z" fill="black"/>
</svg>
