<svg width="110" height="30" viewBox="0 0 110 30" fill="none" xmlns="http://www.w3.org/2000/svg">
<path d="M5.83546 29.0359H0.69873V0.883864H5.83546V9.77892C6.45011 9.31505 7.08358 8.98908 7.73586 8.80103C8.38814 8.60043 9.05297 8.50014 9.73034 8.50014C10.9722 8.50014 12.1388 8.73834 13.2301 9.21475C14.3214 9.67862 15.2685 10.3243 16.0713 11.1517C16.8866 11.9666 17.5264 12.9257 17.9905 14.029C18.4672 15.1197 18.7055 16.2857 18.7055 17.5268V29.0359H13.5311V17.5268H13.5688C13.5688 17.0003 13.4684 16.5051 13.2677 16.0412C13.067 15.5648 12.791 15.1511 12.4398 14.8C12.0886 14.449 11.6809 14.1732 11.2168 13.9726C10.7527 13.772 10.2572 13.6717 9.73034 13.6717C9.19095 13.6717 8.68292 13.772 8.20625 13.9726C7.72959 14.1732 7.31564 14.449 6.96441 14.8C6.61318 15.1511 6.33721 15.5648 6.13651 16.0412C5.93581 16.5051 5.83546 17.0003 5.83546 17.5268V29.0359Z" fill="black"/>
<path d="M28.4333 3.42262C28.4333 3.89903 28.3392 4.3441 28.1511 4.75782C27.9754 5.17154 27.7308 5.53512 27.4172 5.84855C27.1036 6.14944 26.7336 6.39391 26.3071 6.58196C25.8932 6.75748 25.4478 6.84524 24.9712 6.84524C24.4945 6.84524 24.0429 6.75748 23.6164 6.58196C23.2025 6.39391 22.8387 6.14944 22.5251 5.84855C22.2241 5.53512 21.9795 5.17154 21.7913 4.75782C21.6157 4.3441 21.5279 3.89903 21.5279 3.42262C21.5279 2.95875 21.6157 2.51995 21.7913 2.10623C21.9795 1.67997 22.2241 1.31639 22.5251 1.0155C22.8387 0.702076 23.2025 0.457603 23.6164 0.282084C24.0429 0.0940281 24.4945 0 24.9712 0C25.4478 0 25.8932 0.0940281 26.3071 0.282084C26.7336 0.457603 27.1036 0.702076 27.4172 1.0155C27.7308 1.31639 27.9754 1.67997 28.1511 2.10623C28.3392 2.51995 28.4333 2.95875 28.4333 3.42262ZM27.5489 29.0359H22.3746V8.89505H27.5489V29.0359Z" fill="black"/>
<path d="M49.0931 12.9007L45.3299 16.6806C45.1418 16.154 44.8846 15.6839 44.5585 15.2702C44.2323 14.8439 43.8623 14.4866 43.4483 14.1982C43.0469 13.9099 42.6079 13.6905 42.1312 13.54C41.6546 13.3896 41.1654 13.3144 40.6636 13.3144C39.9611 13.3144 39.2963 13.4586 38.6691 13.7469C38.0545 14.0353 37.5151 14.4427 37.051 14.9693C36.5994 15.4833 36.2419 16.0976 35.9784 16.8122C35.715 17.5268 35.5833 18.3167 35.5833 19.1817C35.5833 19.8838 35.715 20.542 35.9784 21.1563C36.2419 21.7706 36.5994 22.3097 37.051 22.7736C37.5151 23.2375 38.0545 23.601 38.6691 23.8643C39.2963 24.1276 39.9611 24.2592 40.6636 24.2592C41.1654 24.2592 41.6483 24.1903 42.1124 24.0524C42.5765 23.9145 43.0093 23.7201 43.4107 23.4694C43.8247 23.2061 44.1884 22.8927 44.502 22.5291C44.8282 22.153 45.0916 21.7393 45.2923 21.288L49.0555 25.0679C48.5788 25.7449 48.0269 26.3529 47.3997 26.892C46.785 27.4311 46.1139 27.8887 45.3864 28.2648C44.6714 28.6409 43.9125 28.923 43.1097 29.1111C42.3194 29.3117 41.504 29.412 40.6636 29.412C39.2461 29.412 37.9102 29.1487 36.6558 28.6221C35.414 28.083 34.3227 27.3496 33.3819 26.4219C32.4536 25.4941 31.7198 24.4097 31.1804 23.1685C30.641 21.9273 30.3713 20.5984 30.3713 19.1817C30.3713 17.6397 30.641 16.1979 31.1804 14.8564C31.7198 13.515 32.4536 12.349 33.3819 11.3586C34.3227 10.3556 35.414 9.56579 36.6558 8.98908C37.9102 8.41238 39.2461 8.12402 40.6636 8.12402C41.504 8.12402 42.3257 8.23059 43.1285 8.44372C43.9438 8.65685 44.7153 8.97028 45.4428 9.384C46.1829 9.78519 46.8603 10.2804 47.4749 10.8696C48.1021 11.4589 48.6415 12.1359 49.0931 12.9007Z" fill="black"/>
<path d="M56.7888 29.0359H51.6144V0.883864H56.7888V18.6364L64.4468 8.93267H70.355L63.6754 17.32L70.355 29.0359H64.4468L60.3638 21.7205L56.7888 26.4595V29.0359Z" fill="black"/>
<path d="M79.7629 24.1088C79.9636 24.1715 80.1643 24.2154 80.365 24.2404C80.5657 24.253 80.7664 24.2592 80.9671 24.2592C81.4689 24.2592 81.9518 24.1903 82.416 24.0524C82.8801 23.9145 83.3129 23.7201 83.7143 23.4694C84.1282 23.2061 84.492 22.8927 84.8056 22.5291C85.1317 22.153 85.3951 21.7393 85.5958 21.288L89.359 25.0679C88.8823 25.7449 88.3304 26.3529 87.7032 26.892C87.0886 27.4311 86.4175 27.8887 85.6899 28.2648C84.9749 28.6409 84.216 28.923 83.4132 29.1111C82.6229 29.3117 81.8076 29.412 80.9671 29.412C79.5497 29.412 78.2138 29.1487 76.9594 28.6221C75.7175 28.0956 74.6262 27.3622 73.6854 26.4219C72.7572 25.4816 72.0233 24.3658 71.484 23.0745C70.9446 21.7706 70.6749 20.3414 70.6749 18.7868C70.6749 17.1946 70.9446 15.7403 71.484 14.4239C72.0233 13.1075 72.7572 11.9854 73.6854 11.0577C74.6262 10.13 75.7175 9.40907 76.9594 8.89505C78.2138 8.38103 79.5497 8.12402 80.9671 8.12402C81.8076 8.12402 82.6292 8.22432 83.432 8.42491C84.2348 8.62551 84.9937 8.91386 85.7087 9.28997C86.4363 9.66609 87.1137 10.13 87.7409 10.6816C88.368 11.2207 88.92 11.8287 89.3966 12.5057L79.7629 24.1088ZM82.3971 13.5212C82.1588 13.4335 81.9205 13.3771 81.6821 13.352C81.4564 13.3269 81.218 13.3144 80.9671 13.3144C80.2647 13.3144 79.5999 13.446 78.9727 13.7093C78.358 13.96 77.8186 14.3236 77.3545 14.8C76.9029 15.2764 76.5454 15.8531 76.282 16.5301C76.0186 17.1946 75.8869 17.9468 75.8869 18.7868C75.8869 18.9749 75.8931 19.188 75.9057 19.4262C75.9308 19.6644 75.9621 19.9089 75.9998 20.1596C76.0499 20.3978 76.1064 20.6298 76.1691 20.8554C76.2318 21.0811 76.3134 21.2817 76.4137 21.4572L82.3971 13.5212Z" fill="black"/>
<path d="M97.13 29.0359H91.9932V8.89505H93.2351L94.9285 10.8508C95.7564 10.0986 96.6909 9.52191 97.7321 9.12072C98.7858 8.707 99.8833 8.50014 101.025 8.50014C102.254 8.50014 103.414 8.73834 104.506 9.21475C105.597 9.67862 106.55 10.3243 107.366 11.1517C108.181 11.9666 108.821 12.9257 109.285 14.029C109.762 15.1197 110 16.2857 110 17.5268V29.0359H104.863V17.5268C104.863 17.0003 104.763 16.5051 104.562 16.0412C104.362 15.5648 104.086 15.1511 103.734 14.8C103.383 14.449 102.975 14.1732 102.511 13.9726C102.047 13.772 101.552 13.6717 101.025 13.6717C100.485 13.6717 99.9774 13.772 99.5008 13.9726C99.0241 14.1732 98.6101 14.449 98.2589 14.8C97.9077 15.1511 97.6317 15.5648 97.431 16.0412C97.2303 16.5051 97.13 17.0003 97.13 17.5268V29.0359Z" fill="black"/>
</svg>
