<svg width="74" height="30" viewBox="0 0 74 30" fill="none" xmlns="http://www.w3.org/2000/svg">
<path d="M5.34707 7.79393V18.4881H10.6941C11.427 18.4881 12.1163 18.3514 12.7622 18.0782C13.408 17.7925 13.9732 17.4075 14.4576 16.9231C14.942 16.4387 15.3208 15.8735 15.5941 15.2277C15.8797 14.5694 16.0226 13.8738 16.0226 13.141C16.0226 12.4082 15.8797 11.7188 15.5941 11.073C15.3208 10.4147 14.942 9.84333 14.4576 9.35892C13.9732 8.87452 13.408 8.49569 12.7622 8.22244C12.1163 7.93676 11.427 7.79393 10.6941 7.79393H5.34707ZM5.34707 29.1636H0V2.44686H10.6941C11.6754 2.44686 12.6193 2.57728 13.526 2.83811C14.4327 3.08652 15.2773 3.44672 16.0598 3.9187C16.8548 4.37826 17.5751 4.93719 18.221 5.59548C18.8793 6.24135 19.4382 6.96175 19.8978 7.75667C20.3698 8.55158 20.73 9.4024 20.9784 10.3091C21.2392 11.2158 21.3696 12.1598 21.3696 13.141C21.3696 14.6066 21.0902 15.9915 20.5312 17.2957C19.9723 18.5874 19.2085 19.7177 18.2396 20.6865C17.2708 21.6553 16.1344 22.4192 14.8302 22.9781C13.5385 23.537 12.1598 23.8165 10.6941 23.8165H5.34707V29.1636Z" fill="#EE26C2"/>
<path d="M29.9771 3.78828C29.9771 4.26027 29.884 4.7012 29.6977 5.11108C29.5238 5.52096 29.2816 5.88116 28.971 6.19167C28.6605 6.48976 28.2941 6.73197 27.8718 6.91828C27.4619 7.09216 27.021 7.17911 26.549 7.17911C26.077 7.17911 25.6299 7.09216 25.2076 6.91828C24.7977 6.73197 24.4375 6.48976 24.127 6.19167C23.8289 5.88116 23.5867 5.52096 23.4004 5.11108C23.2265 4.7012 23.1396 4.26027 23.1396 3.78828C23.1396 3.32872 23.2265 2.894 23.4004 2.48412C23.5867 2.06182 23.8289 1.70162 24.127 1.40353C24.4375 1.09301 24.7977 0.850813 25.2076 0.676924C25.6299 0.490615 26.077 0.397461 26.549 0.397461C27.021 0.397461 27.4619 0.490615 27.8718 0.676924C28.2941 0.850813 28.6605 1.09301 28.971 1.40353C29.2816 1.70162 29.5238 2.06182 29.6977 2.48412C29.884 2.894 29.9771 3.32872 29.9771 3.78828ZM29.1015 29.1636H23.978V9.20988H29.1015V29.1636Z" fill="#EE26C2"/>
<path d="M38.0816 29.1636H32.9953V9.20988H34.225L35.9017 11.1475C36.7215 10.4023 37.6468 9.83091 38.6777 9.43345C39.7211 9.02357 40.8079 8.81863 41.9382 8.81863C43.1554 8.81863 44.3043 9.05462 45.3849 9.5266C46.4655 9.98616 47.4094 10.6258 48.2168 11.4456C49.0241 12.2529 49.6576 13.2031 50.1171 14.2961C50.5891 15.3767 50.8251 16.5318 50.8251 17.7615V29.1636H45.7389V17.7615C45.7389 17.2398 45.6395 16.7492 45.4408 16.2896C45.242 15.8176 44.9688 15.4078 44.621 15.06C44.2732 14.7122 43.8696 14.4389 43.41 14.2402C42.9504 14.0415 42.4598 13.9421 41.9382 13.9421C41.4041 13.9421 40.901 14.0415 40.429 14.2402C39.9571 14.4389 39.5472 14.7122 39.1994 15.06C38.8516 15.4078 38.5784 15.8176 38.3797 16.2896C38.1809 16.7492 38.0816 17.2398 38.0816 17.7615V29.1636Z" fill="#EE26C2"/>
<path d="M59.5816 29.1636H54.4581V1.27311H59.5816V18.8607L67.1644 9.24714H73.0145L66.4005 17.5565L73.0145 29.1636H67.1644L63.1215 21.9161L59.5816 26.6111V29.1636Z" fill="#EE26C2"/>
</svg>
